<?xml version="1.0" encoding="utf-8"?>
<svg width="1280" height="720" xmlns="http://www.w3.org/2000/svg">
  <defs>
    <linearGradient y2="0.058289" x2="1.058677" y1="1.274227" x1="-0.479291" id="SVGID_2_">
      <stop stop-color="#D3D3D3" offset="0.3077"/>
      <stop stop-color="#FFFFFF" offset="0.6752"/>
    </linearGradient>
    <linearGradient y2="-0.300832" x2="1.669156" y1="0.915112" x1="0.079885" id="SVGID_3_">
      <stop stop-color="#D3D3D3" offset="0.3077"/>
      <stop stop-color="#FFFFFF" offset="0.6752"/>
    </linearGradient>
  </defs>
  <g>
    <title>background</title>
    <rect fill="none" id="canvas_background" height="402" width="582" y="-1" x="-1"/>
  </g>
  <g>
    <title>Layer 1</title>
    <g id="Layer_2"/>
    <g id="Ebene_1">
      <path id="svg_1" d="m431.529,442.097l0,0l0,0z" fill="#C90012"/>
      <path id="svg_2" d="m431.529,359.216l0,0l0,0z" fill="#C90012"/>
      <path id="svg_3" d="m431.529,276.306l0,0l0,0z" fill="#C90012"/>
      <path id="svg_4" d="m431.529,317.753l0,0l0,0z" fill="#C90012"/>
      <path id="svg_5" d="m431.529,483.544l0,0l0,0z" fill="#C90012"/>
      <path id="svg_6" d="m431.529,400.642l0,0l0,0z" fill="#C90012"/>
      <path id="svg_7" d="m431.529,234.842l0,0l0,0z" fill="#C90012"/>
      <path id="svg_8" d="m431.529,245.951c0,-6.11 -4.999,-11.108 -11.105,-11.108l-350.861,0c-6.112,0 -14.644,3.534 -18.963,7.855l-25.745,25.745c-4.322,4.321 -7.855,12.853 -7.855,18.963l0,226.468c0,6.111 4.999,11.109 11.106,11.109l350.86,0c6.107,0 14.644,-3.535 18.963,-7.854l25.741,-25.736c4.32,-4.316 7.854,-12.853 7.854,-18.965l0.005,-226.477z" style="fill: rgb(244, 72, 0);"/>
      <path id="svg_9" d="m382.22,392.789l-25.729,-25.729c-4.319,-4.318 -12.854,-7.854 -18.963,-7.853l-19.248,0c-6.112,0.001 -11.11,0.001 -11.11,0.001s3.532,-3.534 7.854,-7.855l67.196,-67.193c4.32,-4.321 2.854,-7.855 -3.253,-7.855l-102.135,0c-6.111,0 -14.643,3.534 -18.963,7.855l-232.727,232.7c-1.825,1.821 -3.517,3.514 -4.871,4.866c2.012,2.011 4.786,3.259 7.836,3.259c0.005,0 0.01,0 0.016,0l99.953,0l167.988,0c6.111,0 11.122,-0.013 11.133,-0.023c0.015,-0.016 3.559,-3.562 7.88,-7.88l67.144,-67.132c4.32,-4.316 7.854,-12.853 7.854,-18.963l0,-19.235c-0.002,-6.112 -3.535,-14.648 -7.855,-18.963z" opacity="0.2"/>
      <path id="svg_10" d="m276.824,400.649c-6.108,0 -14.643,-3.536 -18.96,-7.857l-25.71,-25.718c-4.321,-4.321 -7.857,-12.855 -7.865,-18.966l-0.012,-19.246c-0.008,-6.11 3.525,-14.643 7.846,-18.964l25.741,-25.737c4.321,-4.321 12.852,-7.855 18.963,-7.855l102.14,0c6.107,0 7.573,3.534 3.253,7.855l-25.741,25.737c-4.32,4.321 -12.852,7.855 -18.963,7.855l-60.688,0c-6.112,0 -11.11,4.998 -11.11,11.108l0,19.246c0,6.11 4.998,11.108 11.106,11.106l60.702,-0.007c6.107,-0.002 14.644,3.533 18.963,7.853l25.729,25.729c4.32,4.314 7.854,12.851 7.854,18.963l0,19.235c0,6.109 -3.532,14.646 -7.854,18.963l-25.74,25.74c-4.321,4.316 -12.853,7.854 -18.964,7.854l-60.688,0c-6.112,0 -14.643,-3.536 -18.963,-7.854l-25.741,-25.74c-4.32,-4.316 -2.858,-7.854 3.253,-7.854l102.14,0c6.112,0 11.11,-4.998 11.11,-11.108l0,-19.237c0,-6.112 0,-11.11 0.003,-11.11c0.004,0 -4.994,0 -11.103,0l-60.701,0.009z" fill="url(#SVGID_2_)"/>
      <g id="svg_11" opacity="0.2">
        <path id="svg_12" d="m17.008,370.877c0,-6.109 0,-11.238 0,-11.393c0,-0.155 3.532,-3.818 7.854,-8.138l67.185,-67.186c4.321,-4.321 12.855,-7.855 18.963,-7.855l102.15,0c6.108,0 7.574,3.534 3.253,7.855l-67.197,67.182c-4.32,4.321 -7.853,7.855 -7.853,7.855s4.998,0.002 11.11,0.006l19.228,0.007c6.108,0.004 10.75,4.993 10.318,11.086l-1.114,15.593c-0.433,6.092 -1.707,11.997 -2.833,13.122c-1.125,1.125 -5.576,5.58 -9.896,9.896l-25.201,25.201c-4.32,4.315 -7.885,7.885 -7.922,7.918c-0.034,0.034 4.933,0.064 11.041,0.062l17.979,0c6.108,-0.004 14.784,3.379 19.281,7.519l26.836,24.694c4.497,4.137 8.181,7.623 8.058,7.75c-0.126,0.126 -3.766,3.762 -8.087,8.083l-34.827,34.85l-147.212,0.002c-6.107,0 -11.105,-4.998 -11.105,-11.11l-0.009,-142.999z"/>
      </g>
      <path id="svg_13" d="m111.01,442.097c-6.107,0 -11.104,-4.998 -11.104,-11.108l0,-19.235c0,-6.112 4.998,-11.11 11.104,-11.11l60.69,0c6.108,0 11.106,-4.998 11.106,-11.108l0,-19.206c0,-6.112 -4.998,-11.11 -11.106,-11.11l-60.69,0c-6.107,0 -11.104,-4.998 -11.104,-11.108l0,-19.246c0,-6.11 4.998,-11.108 11.104,-11.108l60.69,0c6.108,0 14.643,-3.534 18.964,-7.854l25.749,-25.741c4.321,-4.319 2.855,-7.853 -3.253,-7.853l-102.15,0c-6.107,0 -14.643,3.534 -18.963,7.855l-25.737,25.735c-4.32,4.321 -7.857,12.854 -7.857,18.964l0,102.125c0,6.11 3.537,14.646 7.857,18.963l25.737,25.74c4.321,4.316 12.855,7.854 18.963,7.854l102.143,0c6.112,0 7.574,-3.536 3.253,-7.855l-25.741,-25.744c-4.32,-4.321 -12.854,-7.857 -18.964,-7.857l-60.691,0.007z" fill="url(#SVGID_3_)"/>
      <g id="svg_14">
        <path id="svg_15" d="m558.605,326.562c-1.623,3.8 -3.851,7.115 -6.683,9.943c-2.832,2.836 -6.146,5.06 -9.947,6.682c-3.796,1.623 -7.838,2.434 -12.116,2.434l-8.496,0c-4.283,0 -8.324,-0.812 -12.121,-2.434c-3.8,-1.623 -7.115,-3.846 -9.942,-6.682c-2.836,-2.828 -5.063,-6.143 -6.683,-9.943c-1.626,-3.796 -2.435,-7.838 -2.435,-12.121l0,-47.858c0,-4.282 0.809,-8.324 2.435,-12.12c1.619,-3.801 3.847,-7.115 6.683,-9.947c2.827,-2.833 6.144,-5.056 9.942,-6.682c3.796,-1.619 7.838,-2.434 12.121,-2.434l8.496,0c4.278,0 8.319,0.815 12.116,2.434c3.8,1.626 7.115,3.85 9.947,6.682s5.06,6.146 6.683,9.947c1.623,3.796 2.434,7.838 2.434,12.12l0,24.964l-58.114,0l0,23.618c0,2.556 0.481,4.956 1.45,7.202c0.965,2.243 2.277,4.195 3.936,5.852c1.66,1.657 3.608,2.97 5.854,3.938c2.243,0.964 4.643,1.447 7.199,1.447l8.495,0c2.554,0 4.953,-0.482 7.199,-1.447c2.243,-0.968 4.195,-2.281 5.853,-3.938c1.657,-1.657 2.971,-3.609 3.938,-5.852c0.964,-2.246 1.451,-4.646 1.451,-7.202l0,-7.042l12.739,2.07l0,4.248c-0.001,4.283 -0.81,8.324 -2.434,12.121zm-10.306,-60.707c0,-2.553 -0.486,-4.952 -1.451,-7.199c-0.968,-2.243 -2.28,-4.194 -3.938,-5.852c-1.656,-1.658 -3.608,-2.97 -5.852,-3.938c-2.248,-0.964 -4.646,-1.45 -7.199,-1.45l-8.496,0c-2.557,0 -4.956,0.486 -7.199,1.45c-2.246,0.969 -4.194,2.281 -5.855,3.938c-1.656,1.657 -2.97,3.609 -3.934,5.852c-0.969,2.247 -1.451,4.646 -1.451,7.199l0,15.745l45.375,0l0,-15.745l0,0z" fill="#e5e5e5"/>
        <path id="svg_16" d="m698.506,343.55l0,-77.695c0,-2.553 -0.482,-4.952 -1.45,-7.199c-0.969,-2.243 -2.276,-4.194 -3.938,-5.853c-1.652,-1.657 -3.608,-2.97 -5.853,-3.938c-2.246,-0.964 -4.646,-1.45 -7.198,-1.45l-6.317,0c-2.558,0 -4.956,0.486 -7.202,1.45c-2.243,0.969 -4.21,2.281 -5.901,3.938c-1.695,1.657 -3.023,3.609 -3.991,5.853c-0.966,2.247 -1.445,4.646 -1.445,7.199l0,77.695l-12.644,0l0,-77.695c0,-2.553 -0.481,-4.952 -1.449,-7.199c-0.969,-2.243 -2.296,-4.194 -3.987,-5.853c-1.69,-1.657 -3.658,-2.97 -5.905,-3.938c-2.242,-0.964 -4.643,-1.45 -7.199,-1.45l-6.317,0c-2.558,0 -4.956,0.486 -7.198,1.45c-2.247,0.969 -4.195,2.281 -5.854,3.938c-1.657,1.657 -2.97,3.609 -3.936,5.853c-0.968,2.247 -1.45,4.646 -1.45,7.199l0,77.695l-12.74,0l0,-106.076l4.244,0l6.942,10.773c2.899,-3.938 6.54,-7.061 10.931,-9.376c4.382,-2.312 9.166,-3.471 14.344,-3.471l1.037,0c6.009,0 11.428,1.485 16.266,4.455c4.833,2.97 8.563,6.908 11.188,11.811c1.312,-2.419 2.936,-4.627 4.868,-6.629c1.934,-2.005 4.075,-3.712 6.423,-5.128c2.35,-1.416 4.905,-2.522 7.668,-3.318c2.761,-0.792 5.627,-1.19 8.597,-1.19l1.037,0c4.278,0 8.319,0.815 12.12,2.434c3.797,1.626 7.114,3.85 9.946,6.682c2.828,2.832 5.057,6.146 6.684,9.947c1.618,3.796 2.435,7.838 2.435,12.12l0,76.968l-12.747,0l0,-0.002l-0.009,0z" fill="#e5e5e5"/>
        <path id="svg_17" d="m803.343,343.55l-7.046,-10.773c-2.9,3.938 -6.525,7.061 -10.878,9.376c-4.348,2.312 -9.115,3.467 -14.294,3.467l-3.211,0c-4.286,0 -8.323,-0.812 -12.12,-2.434c-3.801,-1.623 -7.114,-3.846 -9.946,-6.682c-2.832,-2.828 -5.061,-6.143 -6.684,-9.943c-1.622,-3.796 -2.434,-7.838 -2.434,-12.121l0,-76.966l12.743,0l0,77.691c0,2.556 0.481,4.956 1.446,7.202c0.969,2.243 2.28,4.195 3.938,5.852c1.657,1.657 3.609,2.97 5.853,3.938c2.242,0.964 4.646,1.447 7.203,1.447l8.496,0c2.549,0 4.952,-0.482 7.193,-1.447c2.243,-0.968 4.198,-2.281 5.854,-3.938c1.657,-1.657 2.971,-3.609 3.936,-5.852c0.969,-2.246 1.454,-4.646 1.454,-7.202l0,-77.691l12.736,0l0,106.076l-4.239,0z" fill="#e5e5e5"/>
        <path id="svg_18" d="m837.319,343.55l0,-148.55l12.739,0l0,148.55l-12.739,0z" fill="#e5e5e5"/>
        <path id="svg_19" d="m946.404,343.55l-7.047,-10.567c-2.899,3.8 -6.524,6.854 -10.881,9.17c-4.348,2.312 -9.115,3.467 -14.289,3.467l-3.216,0c-4.282,0 -8.319,-0.812 -12.116,-2.434c-3.805,-1.623 -7.118,-3.846 -9.946,-6.682c-2.836,-2.828 -5.063,-6.143 -6.683,-9.943c-1.627,-3.796 -2.436,-7.838 -2.436,-12.121l0,-1.037c0,-4.279 0.809,-8.32 2.436,-12.121c1.618,-3.796 3.847,-7.111 6.683,-9.943c2.828,-2.832 6.144,-5.06 9.946,-6.682c3.797,-1.623 7.834,-2.434 12.116,-2.434l26.937,0l0,-16.368c0,-2.553 -0.481,-4.952 -1.45,-7.199c-0.969,-2.243 -2.276,-4.194 -3.938,-5.852c-1.652,-1.657 -3.608,-2.97 -5.853,-3.938c-2.246,-0.964 -4.646,-1.45 -7.198,-1.45l-7.459,0c-2.558,0 -4.956,0.486 -7.197,1.45c-2.248,0.969 -4.195,2.281 -5.856,3.938c-1.652,1.657 -2.97,3.609 -3.935,5.852c-0.969,2.247 -1.45,4.646 -1.45,7.199l0,3.835l-12.74,-2.075l0,-1.033c0,-4.282 0.812,-8.324 2.436,-12.12c1.622,-3.801 3.851,-7.115 6.683,-9.947c2.828,-2.833 6.146,-5.056 9.942,-6.682c3.796,-1.619 7.839,-2.434 12.12,-2.434l7.459,0c4.278,0 8.319,0.815 12.117,2.434c3.8,1.626 7.113,3.85 9.949,6.682c2.828,2.832 5.057,6.146 6.68,9.947c1.622,3.796 2.434,7.838 2.434,12.12l0,76.968l-4.248,0l0,0zm-8.497,-51.383l-26.937,0c-2.558,0 -4.956,0.486 -7.199,1.451c-2.245,0.968 -4.193,2.296 -5.852,3.988c-1.661,1.695 -2.971,3.663 -3.938,5.905c-0.97,2.247 -1.451,4.646 -1.451,7.203l0,4.451c0,2.556 0.481,4.956 1.451,7.202c0.968,2.243 2.275,4.195 3.938,5.852c1.656,1.657 3.604,2.97 5.852,3.938c2.243,0.964 4.644,1.447 7.199,1.447l8.496,0c2.553,0 4.952,-0.482 7.198,-1.447c2.242,-0.968 4.198,-2.281 5.853,-3.938c1.661,-1.657 2.971,-3.609 3.938,-5.852c0.969,-2.246 1.45,-4.646 1.45,-7.202l0.002,-22.998l0,0z" fill="#e5e5e5"/>
        <path id="svg_20" d="m1014.771,343.55c-3.864,0 -7.509,-0.724 -10.931,-2.174c-3.418,-1.451 -6.389,-3.456 -8.909,-6.009c-2.52,-2.557 -4.523,-5.526 -6.009,-8.91c-1.485,-3.383 -2.225,-7.007 -2.225,-10.876l0,-65.991l-19.063,0l0,-12.116l19.063,0l0,-25.485l12.739,-2.07l0,27.555l26.937,0l0,12.116l-26.937,0l0,66.611c0,2.143 0.398,4.129 1.194,5.955c0.788,1.833 1.879,3.437 3.261,4.818c1.383,1.381 3.004,2.472 4.868,3.264c1.866,0.792 3.864,1.189 6.009,1.189l11.604,0l0,12.121l-11.601,0.002l0,0z" fill="#e5e5e5"/>
        <path id="svg_21" d="m1052.996,211.989l0,-16.989l14.814,0l0,16.989l-14.814,0zm1.037,131.561l0,-106.076l12.74,0l0,106.076l-12.74,0z" fill="#e5e5e5"/>
        <path id="svg_22" d="m1164.93,326.562c-1.623,3.8 -3.852,7.115 -6.679,9.943c-2.837,2.836 -6.149,5.06 -9.95,6.682c-3.797,1.623 -7.838,2.434 -12.116,2.434l-8.496,0c-4.282,0 -8.319,-0.812 -12.116,-2.434c-3.805,-1.623 -7.119,-3.846 -9.946,-6.682c-2.837,-2.828 -5.062,-6.143 -6.683,-9.943c-1.627,-3.796 -2.436,-7.838 -2.436,-12.121l0,-47.858c0,-4.282 0.809,-8.324 2.436,-12.12c1.619,-3.801 3.846,-7.115 6.683,-9.947c2.827,-2.833 6.144,-5.056 9.946,-6.682c3.797,-1.619 7.834,-2.434 12.116,-2.434l8.496,0c4.278,0 8.319,0.815 12.116,2.434c3.801,1.626 7.114,3.85 9.95,6.682c2.827,2.832 5.056,6.146 6.679,9.947c1.622,3.796 2.435,7.838 2.435,12.12l0,47.858c-0.002,4.283 -0.813,8.324 -2.435,12.121zm-10.308,-60.707c0,-2.553 -0.481,-4.952 -1.449,-7.199c-0.97,-2.243 -2.276,-4.194 -3.938,-5.852c-1.653,-1.657 -3.608,-2.97 -5.853,-3.938c-2.246,-0.964 -4.646,-1.45 -7.199,-1.45l-8.496,0c-2.557,0 -4.955,0.486 -7.197,1.45c-2.247,0.969 -4.194,2.281 -5.853,3.938c-1.661,1.657 -2.971,3.609 -3.938,5.852c-0.97,2.247 -1.45,4.646 -1.45,7.199l0,49.309c0,2.556 0.48,4.956 1.45,7.202c0.968,2.243 2.276,4.195 3.938,5.852c1.656,1.657 3.604,2.97 5.853,3.938c2.242,0.964 4.643,1.447 7.197,1.447l8.496,0c2.554,0 4.953,-0.482 7.199,-1.447c2.243,-0.968 4.197,-2.281 5.853,-3.938c1.661,-1.657 2.97,-3.609 3.938,-5.852c0.968,-2.246 1.449,-4.646 1.449,-7.202l0,-49.309z" fill="#e5e5e5"/>
        <path id="svg_23" d="m1250.964,343.55l0,-77.695c0,-2.553 -0.485,-4.952 -1.451,-7.199c-0.969,-2.243 -2.28,-4.194 -3.935,-5.853c-1.661,-1.657 -3.612,-2.97 -5.855,-3.938c-2.242,-0.964 -4.646,-1.45 -7.197,-1.45l-8.492,0c-2.558,0 -4.96,0.486 -7.203,1.45c-2.241,0.969 -4.193,2.281 -5.854,3.938c-1.652,1.657 -2.97,3.609 -3.935,5.853c-0.969,2.247 -1.45,4.646 -1.45,7.199l0,77.695l-12.74,0l0,-106.076l4.248,0l6.938,10.773c2.9,-3.938 6.541,-7.061 10.931,-9.376c4.382,-2.312 9.166,-3.471 14.349,-3.471l3.211,0c4.281,0 8.319,0.815 12.12,2.434c3.797,1.626 7.11,3.85 9.942,6.682s5.061,6.146 6.683,9.947c1.623,3.796 2.436,7.838 2.436,12.12l0,76.968l-12.746,-0.001l0,0z" fill="#e5e5e5"/>
        <path id="svg_24" d="m563.109,496.258c0,4.278 -0.865,8.198 -2.588,11.757c-1.729,3.562 -4.075,6.613 -7.045,9.17c-2.971,2.559 -6.406,4.539 -10.308,5.955c-3.903,1.416 -7.995,2.12 -12.276,2.12l-8.492,0c-4.283,0 -8.377,-0.812 -12.277,-2.434c-3.903,-1.623 -7.32,-3.843 -10.257,-6.684c-2.937,-2.823 -5.28,-6.14 -7.042,-9.942c-1.76,-3.797 -2.641,-7.838 -2.641,-12.116l0,-4.248l12.739,-2.074l0,7.042c0,2.558 0.531,4.961 1.604,7.202c1.07,2.243 2.503,4.194 4.301,5.854c1.795,1.653 3.866,2.971 6.217,3.936c2.346,0.965 4.799,1.447 7.354,1.447l8.491,0c2.558,0 5.006,-0.376 7.355,-1.135c2.347,-0.766 4.438,-1.853 6.27,-3.269c1.829,-1.416 3.28,-3.123 4.352,-5.129c1.068,-1.997 1.604,-4.277 1.604,-6.835c0,-3.797 -0.826,-6.903 -2.487,-9.323c-1.657,-2.419 -3.851,-4.438 -6.575,-6.062c-2.729,-1.623 -5.836,-2.964 -9.322,-4.034c-3.49,-1.071 -7.064,-2.145 -10.725,-3.215c-3.663,-1.071 -7.236,-2.296 -10.725,-3.674c-3.485,-1.388 -6.594,-3.2 -9.322,-5.442c-2.729,-2.242 -4.918,-5.06 -6.575,-8.442c-1.661,-3.384 -2.487,-7.593 -2.487,-12.638c0,-4.278 0.826,-8.196 2.487,-11.757c1.657,-3.561 3.899,-6.613 6.731,-9.17s6.127,-4.539 9.894,-5.955c3.763,-1.416 7.785,-2.128 12.067,-2.128l7.459,0c4.282,0 8.323,0.819 12.12,2.435c3.796,1.631 7.115,3.852 9.947,6.683c2.827,2.834 5.056,6.146 6.683,9.951c1.618,3.797 2.434,7.838 2.434,12.116l0,0.413l-12.744,2.074l0,-3.215c0,-2.55 -0.48,-4.953 -1.45,-7.195c-0.97,-2.241 -2.276,-4.193 -3.935,-5.854c-1.657,-1.653 -3.608,-2.972 -5.854,-3.937c-2.243,-0.964 -4.644,-1.453 -7.198,-1.453l-7.459,0c-2.554,0 -4.957,0.384 -7.199,1.142c-2.243,0.766 -4.195,1.853 -5.853,3.261c-1.657,1.424 -2.971,3.13 -3.938,5.128c-0.97,2.006 -1.451,4.287 -1.451,6.844c0,3.658 0.831,6.646 2.488,8.955c1.657,2.319 3.85,4.271 6.579,5.855c2.725,1.592 5.833,2.916 9.322,3.985c3.486,1.072 7.042,2.175 10.67,3.314c3.625,1.141 7.181,2.436 10.67,3.889c3.486,1.446 6.595,3.314 9.323,5.588c2.729,2.28 4.922,5.129 6.579,8.552c1.658,3.423 2.485,7.648 2.485,12.692z" fill="#e5e5e5"/>
        <path id="svg_25" d="m626.196,523.194c-3.865,0 -7.509,-0.729 -10.927,-2.175c-3.421,-1.455 -6.392,-3.461 -8.909,-6.01c-2.521,-2.557 -4.522,-5.524 -6.009,-8.908c-1.484,-3.385 -2.229,-7.013 -2.229,-10.877l0,-65.996l-19.059,0l0,-12.116l19.059,0l0,-25.479l12.74,-2.072l0,27.555l26.938,0l0,12.117l-26.937,0l0,66.613c0,2.145 0.397,4.126 1.193,5.955c0.792,1.829 1.879,3.438 3.262,4.813c1.381,1.386 3.004,2.473 4.867,3.27c1.868,0.788 3.869,1.188 6.008,1.188l11.604,0l0,12.123l-11.601,-0.001l0,0z" fill="#e5e5e5"/>
        <path id="svg_26" d="m727.821,523.194l-7.042,-10.57c-2.899,3.804 -6.527,6.856 -10.876,9.169c-4.353,2.313 -9.116,3.468 -14.3,3.468l-3.207,0c-4.285,0 -8.327,-0.812 -12.123,-2.434c-3.802,-1.623 -7.114,-3.844 -9.943,-6.685c-2.836,-2.823 -5.063,-6.139 -6.682,-9.941c-1.627,-3.796 -2.436,-7.839 -2.436,-12.116l0,-1.041c0,-4.277 0.809,-8.32 2.436,-12.116c1.617,-3.797 3.846,-7.109 6.682,-9.941c2.829,-2.832 6.144,-5.062 9.943,-6.684c3.796,-1.622 7.838,-2.435 12.123,-2.435l26.933,0l0,-16.372c0,-2.549 -0.485,-4.953 -1.449,-7.195c-0.97,-2.241 -2.28,-4.193 -3.936,-5.854c-1.661,-1.653 -3.612,-2.972 -5.854,-3.937c-2.242,-0.964 -4.646,-1.453 -7.199,-1.453l-7.459,0c-2.557,0 -4.955,0.489 -7.201,1.453c-2.243,0.965 -4.194,2.281 -5.853,3.937c-1.657,1.66 -2.971,3.612 -3.936,5.854c-0.97,2.242 -1.45,4.646 -1.45,7.195l0,3.834l-12.744,-2.074l0,-1.032c0,-4.278 0.813,-8.319 2.436,-12.116c1.623,-3.806 3.85,-7.117 6.683,-9.95c2.832,-2.832 6.146,-5.052 9.946,-6.684c3.796,-1.614 7.838,-2.435 12.119,-2.435l7.459,0c4.283,0 8.32,0.818 12.121,2.435c3.797,1.632 7.109,3.852 9.941,6.684c2.832,2.833 5.061,6.146 6.684,9.95c1.623,3.797 2.435,7.838 2.435,12.116l0,76.972l-4.251,-0.002l0,0zm-8.493,-51.384l-26.932,0c-2.562,0 -4.961,0.482 -7.202,1.447c-2.247,0.974 -4.193,2.296 -5.854,3.988c-1.657,1.699 -2.971,3.666 -3.936,5.908c-0.969,2.241 -1.45,4.646 -1.45,7.202l0,4.446c0,2.559 0.481,4.96 1.45,7.202c0.965,2.243 2.276,4.194 3.936,5.855c1.661,1.651 3.607,2.97 5.854,3.935c2.241,0.965 4.643,1.447 7.202,1.447l8.491,0c2.554,0 4.957,-0.482 7.199,-1.447c2.241,-0.965 4.193,-2.28 5.854,-3.935c1.652,-1.661 2.966,-3.612 3.936,-5.855c0.964,-2.242 1.449,-4.646 1.449,-7.202l0.003,-22.991l0,0z" fill="#e5e5e5"/>
        <path id="svg_27" d="m796.193,523.194c-3.869,0 -7.514,-0.729 -10.928,-2.175c-3.421,-1.455 -6.392,-3.461 -8.908,-6.01c-2.526,-2.557 -4.523,-5.524 -6.01,-8.908c-1.484,-3.385 -2.229,-7.013 -2.229,-10.877l0,-65.996l-19.059,0l0,-12.116l19.059,0l0,-25.479l12.741,-2.072l0,27.555l26.932,0l0,12.117l-26.931,0l0,66.613c0,2.145 0.395,4.126 1.188,5.955c0.796,1.829 1.883,3.438 3.266,4.813c1.382,1.386 3.005,2.473 4.867,3.27c1.864,0.788 3.869,1.188 6.01,1.188l11.6,0l0,12.123l-11.598,-0.001l0,0z" fill="#e5e5e5"/>
        <path id="svg_28" d="m834.419,391.632l0,-16.987l14.813,0l0,16.987l-14.813,0zm1.036,131.562l0,-106.081l12.74,0l0,106.081l-12.74,0l0,0z" fill="#e5e5e5"/>
        <path id="svg_29" d="m946.352,506.201c-1.623,3.805 -3.851,7.118 -6.683,9.941c-2.832,2.841 -6.146,5.062 -9.942,6.685c-3.802,1.622 -7.839,2.434 -12.121,2.434l-8.492,0c-4.286,0 -8.327,-0.812 -12.124,-2.434c-3.796,-1.623 -7.109,-3.844 -9.941,-6.685c-2.832,-2.823 -5.061,-6.139 -6.684,-9.941c-1.623,-3.796 -2.436,-7.839 -2.436,-12.116l0,-47.861c0,-4.278 0.813,-8.319 2.436,-12.116c1.623,-3.806 3.852,-7.117 6.684,-9.95c2.831,-2.832 6.146,-5.052 9.941,-6.684c3.797,-1.614 7.838,-2.435 12.124,-2.435l8.492,0c4.282,0 8.319,0.819 12.121,2.435c3.797,1.632 7.11,3.852 9.942,6.684c2.831,2.833 5.06,6.146 6.683,9.95c1.622,3.797 2.434,7.838 2.434,12.116l0,47.861c-0.003,4.278 -0.812,8.32 -2.434,12.116zm-10.308,-60.705c0,-2.549 -0.485,-4.953 -1.45,-7.195c-0.968,-2.241 -2.281,-4.193 -3.936,-5.854c-1.661,-1.653 -3.611,-2.972 -5.854,-3.937c-2.241,-0.964 -4.646,-1.453 -7.198,-1.453l-8.492,0c-2.558,0 -4.96,0.489 -7.202,1.453c-2.242,0.965 -4.193,2.281 -5.854,3.937c-1.652,1.66 -2.97,3.612 -3.936,5.854c-0.968,2.242 -1.449,4.646 -1.449,7.195l0,49.31c0,2.558 0.481,4.959 1.449,7.201c0.966,2.243 2.281,4.194 3.936,5.855c1.661,1.651 3.612,2.97 5.854,3.935c2.242,0.966 4.646,1.447 7.202,1.447l8.492,0c2.554,0 4.957,-0.481 7.198,-1.447c2.243,-0.965 4.193,-2.28 5.854,-3.935c1.652,-1.661 2.968,-3.612 3.936,-5.855c0.965,-2.242 1.45,-4.646 1.45,-7.201l0,-49.31z" fill="#e5e5e5"/>
        <path id="svg_30" d="m1032.385,523.194l0,-77.698c0,-2.549 -0.481,-4.953 -1.449,-7.195c-0.97,-2.241 -2.277,-4.193 -3.938,-5.854c-1.652,-1.653 -3.608,-2.972 -5.853,-3.937c-2.246,-0.964 -4.646,-1.453 -7.198,-1.453l-8.496,0c-2.558,0 -4.956,0.489 -7.198,1.453c-2.246,0.965 -4.193,2.281 -5.853,3.937c-1.661,1.66 -2.97,3.612 -3.938,5.854c-0.97,2.242 -1.451,4.646 -1.451,7.195l0,77.698l-12.739,0l0,-106.081l4.243,0l6.942,10.775c2.9,-3.939 6.545,-7.063 10.931,-9.375c4.387,-2.312 9.17,-3.477 14.345,-3.477l3.215,0c4.278,0 8.32,0.818 12.117,2.436c3.8,1.629 7.114,3.851 9.95,6.683c2.827,2.833 5.056,6.146 6.679,9.951c1.622,3.795 2.435,7.838 2.435,12.114l0,76.974l-12.744,0l0,0z" fill="#e5e5e5"/>
      </g>
    </g>
    <g id="Layer_3"/>
  </g>
  <g id="layer1" transform="matrix(-0.190313, 0, 0, 0.190313, 1229.864258, 336.718414)" style="">
    <g style="fill:#ff0000" id="g2180" transform="matrix(1.5834094,0,0,1.5834094,-113.10214,-535.93648)">
      <path d="M 199.98,412.673 C 199.98,377.048 228.858,348.17 264.483,348.17 C 300.108,348.17 328.987,377.048 328.987,412.673 C 328.987,448.298 300.108,477.177 264.483,477.177 C 228.858,477.177 199.98,448.298 199.98,412.673 z " id="path2182" style="fill: rgb(244, 72, 0);"/>
    </g>
    <g style="fill:#ff0000" id="g2184" transform="matrix(1.5834094,0,0,1.5834094,-113.10214,-535.93648)">
      <path d="" id="path2186"/>
    </g>
    <g style="fill:#000000" id="g2188" transform="matrix(1.5834094,0,0,1.5834094,-113.10214,-535.93648)">
      <path d="M 79.966,719.19 L 182.966,914.19 C 210.33,964.032 245.664,978.366 288.966,957.19 L 471.966,891.19 C 508.694,871.148 526.361,848.147 524.966,822.19 L 460.966,716.19 L 329.966,595.19 L 150.966,629.19 C 137.771,629.387 128.437,635.388 122.966,647.19 C 100.246,648.241 85.913,672.241 79.966,719.19 z " id="path2190"/>
    </g>
    <g style="fill:#000000" id="g2192" transform="matrix(1.5834094,0,0,1.5834094,-113.10214,-535.93648)">
      <path d="M 122.966,665.19 C 122.903,645.99 128.237,634.656 138.966,631.19 L 330.966,595.19 L 416.966,678.19 C 423.735,684.767 426.068,691.434 423.966,698.19 C 426.491,706.828 425.491,714.495 420.966,721.19 L 230.966,780.19 C 207.399,780.299 194.065,776.965 190.966,770.19 L 122.966,665.19 z " id="path2194"/>
    </g>
    <g style="fill:#ffffff" id="g2196" transform="matrix(1.5834094,0,0,1.5834094,-113.10214,-535.93648)">
      <path d="M 410.693,672.136 L 416.966,678.19 C 418.246,679.434 419.368,680.681 420.33,681.932 C 417.315,691.962 410.193,699.382 398.966,704.19 L 233.966,753.19 C 217.691,756.403 205.691,752.736 197.966,742.19 C 205.461,748.013 216.794,749.347 231.966,746.19 L 397.966,695.19 C 406.873,691.457 411.115,683.772 410.693,672.136 z " id="path2198"/>
    </g>
    <g style="fill:#ffffff" id="g2200" transform="matrix(1.5834094,0,0,1.5834094,-113.10214,-535.93648)">
      <path d="M 124.275,650.464 C 124.79,648.008 125.456,645.774 126.275,643.761 L 190.966,748.19 C 194.159,754.453 203.966,756.19 214.966,760.19 C 202.667,762.05 193.667,760.05 187.966,754.19 L 124.275,650.464 z " id="path2202"/>
    </g>
    <g style="fill:#ffffff" id="g2204" transform="matrix(1.5834094,0,0,1.5834094,-113.10214,-535.93648)">
      <path d="M 511.717,860.237 C 502.871,871.238 489.621,881.556 471.966,891.19 L 288.966,957.19 C 245.664,978.366 210.33,964.032 182.966,914.19 L 173.928,897.08 L 181.966,890.19 C 190.966,920.19 257.966,931.19 306.966,898.19 L 318.966,847.19 L 449.966,804.19 L 505.966,838.19 L 511.717,860.237 z " id="path2206"/>
    </g>
    <g style="fill:#000000" id="g2208" transform="matrix(1.5834094,0,0,1.5834094,-113.10214,-535.93648)">
      <path d="M 524.039,835.1 C 519.844,855.839 502.486,874.536 471.966,891.19 L 288.966,957.19 C 249.262,976.607 216.256,966.169 189.951,925.878 C 230.63,943.925 270.303,943.696 308.966,925.19 L 500.966,853.19 C 508.263,850.124 515.955,844.094 524.039,835.1 z " id="path2210"/>
    </g>
    <g style="fill:#ffffff" id="g2212" transform="matrix(1.5834094,0,0,1.5834094,-113.10214,-535.93648)">
      <path d="M 90.776,674.671 C 93.731,667.814 97.153,662.238 101.044,657.943 L 189.966,805.19 L 179.966,831.19 L 90.776,674.671 z " id="path2214"/>
    </g>
    <g style="fill:#000000" id="g2216" transform="matrix(1.5834094,0,0,1.5834094,-113.10214,-535.93648)">
      <path d="M 307.966,837.19 L 489.966,772.19 L 485.966,815.19 L 295.966,883.19 L 307.966,837.19 z " id="path2218"/>
    </g>
    <g style="fill:#000000" id="g2220" transform="matrix(1.5834094,0,0,1.5834094,-113.10214,-535.93648)">
      <path d="M 194.966,592.69 C 194.966,574.189 228.096,559.19 268.966,559.19 C 309.836,559.19 342.966,574.189 342.966,592.69 C 342.966,611.192 309.836,626.19 268.966,626.19 C 228.096,626.19 194.966,611.192 194.966,592.69 z " id="path2222"/>
    </g>
    <g style="fill:#000000" id="g2224" transform="matrix(1.5834094,0,0,1.5834094,-113.10214,-535.93648)">
      <path d="" id="path2226"/>
    </g>
    <g style="fill:#000000" id="g2228" transform="matrix(1.5834094,0,0,1.5834094,-113.10214,-535.93648)">
      <path d="M 195.488,596.69 C 198.49,608.112 214.186,617.771 236.056,622.703 L 236.056,630.703 C 211.68,625.205 194.966,613.832 194.966,600.69 C 194.966,599.337 195.143,598.002 195.488,596.69 z " id="path2230"/>
    </g>
    <g style="fill:#ffffff" id="g2232" transform="matrix(1.5834094,0,0,1.5834094,-113.10214,-535.93648)">
      <path d="M 268.966,626.19 C 281.983,626.19 294.216,624.669 304.889,621.985 L 304.889,629.985 C 294.216,632.669 281.984,634.19 268.966,634.19 C 257.143,634.19 245.969,632.935 236.056,630.703 L 236.056,622.703 C 245.969,624.935 257.144,626.19 268.966,626.19 z " id="path2234"/>
    </g>
    <g style="fill:#000000" id="g2236" transform="matrix(1.5834094,0,0,1.5834094,-113.10214,-535.93648)">
      <path d="M 342.966,600.69 C 342.966,613.291 327.6,624.266 304.889,629.985 L 304.889,621.985 C 325.161,616.88 339.58,607.588 342.444,596.69 C 342.789,598.002 342.966,599.337 342.966,600.69 z " id="path2238"/>
    </g>
    <g style="fill:#ffffff" id="g2240" transform="matrix(1.5834094,0,0,1.5834094,-113.10214,-535.93648)">
      <path d="M 345.779,668.14 C 341.885,675.229 336.565,681.088 330.196,685.885 L 325.224,622.45 C 336.314,616.568 342.966,608.981 342.966,600.69 C 342.966,599.375 345.779,668.14 345.779,668.14 z " id="path2242"/>
    </g>
    <g style="fill:#000000" id="g2244" transform="matrix(1.5834094,0,0,1.5834094,-113.10214,-535.93648)">
      <path d="M 316.24,626.464 C 319.481,625.243 322.487,623.9 325.224,622.45 L 330.196,685.885 C 326.919,688.35 323.371,690.523 319.61,692.423 L 316.24,626.464 z " id="path2246"/>
    </g>
    <g style="fill:#000000" id="g2248" transform="matrix(1.5834094,0,0,1.5834094,-113.10214,-535.93648)">
      <path d="M 268.966,634.19 C 286.941,634.19 303.419,631.289 316.24,626.464 L 319.61,692.423 C 298.417,703.123 270.536,705.082 246.506,701.675 L 244.901,632.379 C 252.481,633.556 260.56,634.19 268.966,634.19 z " id="path2250"/>
    </g>
    <g style="fill:#ffffff" id="g2252" transform="matrix(1.5834094,0,0,1.5834094,-113.10214,-535.93648)">
      <path d="M 194.969,600.996 C 195.134,609.344 202.044,616.964 213.399,622.815 L 213.877,692.577 C 203.97,687.939 197.173,682.125 195.447,675.758 C 195.447,675.758 195.01,606.316 194.969,600.996 z " id="path2254"/>
    </g>
    <g style="fill:#000000" id="g2256" transform="matrix(1.5834094,0,0,1.5834094,-113.10214,-535.93648)">
      <path d="M 246.506,701.675 C 234.115,699.916 222.756,696.729 213.877,692.577 L 213.399,622.815 C 221.799,627.135 232.62,630.468 244.901,632.379 L 246.506,701.675 z " id="path2258"/>
    </g>
    <g style="fill:#ffffff" id="g2260" transform="matrix(1.5834094,0,0,1.5834094,-113.10214,-535.93648)">
      <path d="M 233.779,578.428 C 233.779,570.537 249.47,564.14 268.826,564.14 C 288.182,564.14 303.873,570.537 303.873,578.428 C 303.873,586.319 288.182,592.716 268.826,592.716 C 249.47,592.716 233.779,586.319 233.779,578.428 z " id="path2262"/>
    </g>
    <g style="fill:#000000" id="g2264" transform="matrix(1.5834094,0,0,1.5834094,-113.10214,-535.93648)">
      <path d="M 303.932,578.622 C 303.677,586.424 288.023,592.716 268.826,592.716 C 249.629,592.716 234.038,586.424 233.782,578.622 L 233.782,592.622 C 234.038,600.424 249.629,606.716 268.826,606.716 C 288.023,606.716 303.677,600.424 303.932,592.622 L 303.932,578.521 M 238.562,471.757 C 240.868,472.77 243.244,473.652 245.733,474.409 L 253.277,588.474 C 249.253,587.686 246.54,586.631 246.347,585.478 L 238.562,471.757 z " id="path2266"/>
    </g>
    <g style="fill:#ff0000" id="g2268" transform="matrix(1.5834094,0,0,1.5834094,-113.10214,-535.93648)">
      <path d="M 290.153,583.572 C 288.164,590.688 265.122,590.785 253.277,588.474 L 245.733,474.409 C 251.666,476.209 257.962,477.177 264.483,477.177 C 275.515,477.177 285.9,474.407 294.981,469.526 L 290.153,583.572 z " id="path2270" style="paint-order: fill; fill: rgb(244, 73, 0);"/>
    </g>
    <g style="fill:#ffffff" id="g2272" transform="matrix(1.5834094,0,0,1.5834094,-113.10214,-535.93648)">
      <path d="M 240.838,367.19 C 240.838,359.147 252.409,352.626 266.684,352.626 C 280.959,352.626 292.53,359.147 292.53,367.19 C 292.53,375.234 280.959,381.755 266.684,381.755 C 252.409,381.755 240.838,375.234 240.838,367.19 z " id="path2274"/>
    </g>
    <g style="fill:#ffffff" id="g2276" transform="matrix(1.5834094,0,0,1.5834094,-113.10214,-535.93648)">
      <path d="" id="path2278"/>
    </g>
    <g style="fill:#000000" id="g2280" transform="matrix(1.5834094,0,0,1.5834094,-113.10214,-535.93648)">
      <path d="M 199.98,412.673 C 199.98,410.991 200.044,409.323 200.171,407.673 C 202.723,440.961 230.541,467.177 264.483,467.177 C 298.425,467.177 326.244,440.961 328.796,407.673 C 328.922,409.323 328.987,410.991 328.987,412.673 C 328.987,448.298 300.108,477.177 264.483,477.177 C 228.858,477.177 199.98,448.298 199.98,412.673 z " id="path2282"/>
    </g>
    <g style="fill:#ff0000" id="g2284" transform="matrix(1.5834094,0,0,1.5834094,-113.10214,-535.93648)">
      <path d="M 173.966,824.701 C 173.966,796.8 206.652,774.183 246.973,774.183 C 284.205,774.183 314.928,793.468 319.417,818.389 C 319.417,846.289 286.731,868.906 246.41,868.906 C 209.177,868.906 178.453,849.623 173.966,824.701 z " id="path2286" style="fill: rgb(244, 72, 0);"/>
    </g>
    <g style="fill:none;stroke:#000000" id="g2288" transform="matrix(1.5834094,0,0,1.5834094,-113.10214,-535.93648)">
      <path d="M 173.966,824.701 C 173.966,796.8 206.652,774.183 246.973,774.183 C 287.294,774.183 319.98,796.8 319.98,824.701 C 319.98,852.601 287.294,875.218 246.973,875.218 C 206.652,875.218 173.966,852.601 173.966,824.701 z " id="path2290"/>
    </g>
    <g style="fill:none;stroke:#000000" id="g2292" transform="matrix(1.5834094,0,0,1.5834094,-113.10214,-535.93648)">
      <path d="" id="path2294"/>
    </g>
    <g style="fill:#000000" id="g2296" transform="matrix(1.5834094,0,0,1.5834094,-113.10214,-535.93648)">
      <path d="M 293.968,802.718 C 297.195,806.946 299,811.678 299,816.673 C 299,834.609 275.72,849.149 247,849.149 C 223.267,849.149 203.248,839.219 197.012,825.649 C 205.37,836.601 223.259,844.17 243.98,844.17 C 272.699,844.17 295.98,829.63 295.98,811.694 C 295.98,808.58 295.278,805.569 293.968,802.718 z " id="path2298"/>
    </g>
    <g style="fill:#ff0000" id="g2300" transform="matrix(1.5834094,0,0,1.5834094,-113.10214,-535.93648)">
      <path d="M 293.968,802.718 C 295.278,805.569 295.98,808.58 295.98,811.694 C 295.98,829.63 272.699,844.17 243.98,844.17 C 223.259,844.17 205.37,836.601 197.012,825.649 C 195.702,822.798 195,819.787 195,816.673 C 195,798.737 218.281,784.197 247,784.197 C 267.721,784.197 285.611,791.766 293.968,802.718 z " id="path2302" style="fill: rgb(244, 72, 0);"/>
    </g>
    <g style="fill:#000000" id="g2304" transform="matrix(1.5834094,0,0,1.5834094,-113.10214,-535.93648)">
      <path d="M 319.417,818.389 C 319.789,820.457 319.98,822.563 319.98,824.701 C 319.98,852.601 287.294,875.218 246.973,875.218 C 206.652,875.218 173.966,852.601 173.966,824.701 C 178.454,849.622 209.178,868.906 246.41,868.906 C 286.731,868.906 319.417,846.289 319.417,818.389 z " id="path2306"/>
    </g>
    <g style="fill:#000000" id="g2308" transform="matrix(1.5834094,0,0,1.5834094,-113.10214,-535.93648)">
      <path d="M 319.98,888.879 C 306.435,923.314 239.105,932.303 200.846,912.694 L 200.842,863.856 C 213.438,870.971 229.478,875.218 246.973,875.218 C 287.294,875.218 319.98,852.601 319.98,824.701 L 319.98,888.879 z " id="path2310"/>
    </g>
    <g style="fill:#ffffff" id="g2312" transform="matrix(1.5834094,0,0,1.5834094,-113.10214,-535.93648)">
      <path d="M 174.418,829.395 C 176.21,843.279 186.117,855.525 200.842,863.856 L 200.846,912.694 C 191.43,907.861 183.785,901.292 179.152,892.939 L 174.418,829.395 C 174.255,828.132 174.159,826.854 174.133,825.565 L 174.418,829.395 z " id="path2314"/>
    </g>
    <g style="fill:#ffffff" id="g2316" transform="matrix(1.5834094,0,0,1.5834094,-113.10214,-535.93648)">
      <path d="M 319.98,842.659 C 309.358,864.578 280.233,880.316 245.966,880.316 C 215.306,880.316 188.762,867.717 175.906,849.364 L 174.418,829.395 C 174.255,828.132 174.159,826.854 174.133,825.565 L 174.418,829.395 C 177.739,855.117 208.911,875.218 246.973,875.218 C 287.294,875.218 319.98,852.601 319.98,824.701 L 319.98,842.659 z " id="path2318"/>
    </g>
    <g style="fill:#ffffff" id="g2320" transform="matrix(1.5834094,0,0,1.5834094,-113.10214,-535.93648)">
      <path d="M 530.108,822.314 C 526.947,830.353 520.854,837.004 512.846,842.255 L 512.842,790.763 C 523.632,781.927 530.108,770.555 530.108,758.136 L 530.108,822.314 z " id="path2322"/>
    </g>
    <g style="fill:#000000" id="g2324" transform="matrix(1.5834094,0,0,1.5834094,-113.10214,-535.93648)">
      <path d="M 512.846,842.255 C 493.089,855.189 461.824,859.368 435.045,854.177 L 435.042,806.303 C 442.03,807.836 449.425,808.654 457.101,808.654 C 479.449,808.654 499.45,801.706 512.842,790.763 L 512.846,842.255 z " id="path2326"/>
    </g>
    <g style="fill:#000000" id="g2328" transform="matrix(1.5834094,0,0,1.5834094,-113.10214,-535.93648)">
      <path d="M 385.047,762.049 C 387.298,783.195 407.596,800.266 435.042,806.303 L 435.045,854.177 C 414.966,850.277 397.446,841.095 389.28,826.375 C 389.28,826.375 384.546,762.831 385.047,762.049 C 384.383,761.567 384.287,760.29 384.261,759.001 C 384.261,759.001 384.546,762.831 385.047,762.049 z " id="path2330"/>
    </g>
    <g style="fill:#ff0000" id="g2332" transform="matrix(1.5834094,0,0,1.5834094,-113.10214,-535.93648)">
      <path d="M 384.985,762.184 C 384.985,734.284 417.671,711.667 457.992,711.667 C 495.224,711.667 525.947,730.951 530.436,755.873 C 530.436,783.773 497.75,806.39 457.429,806.39 C 420.196,806.39 389.472,787.107 384.985,762.184 z " id="path2334" style="fill: rgb(244, 72, 0);"/>
    </g>
    <g style="fill:#000000" id="g2336" transform="matrix(1.5834094,0,0,1.5834094,-113.10214,-535.93648)">
      <path d="M 504.987,740.201 C 508.213,744.429 510.019,749.161 510.019,754.157 C 510.019,772.093 486.738,786.632 458.019,786.632 C 434.286,786.632 414.266,776.703 408.031,763.133 C 416.388,774.085 434.278,781.653 454.998,781.653 C 483.718,781.653 506.998,767.113 506.998,749.177 C 506.998,746.063 506.297,743.052 504.987,740.201 z " id="path2338"/>
    </g>
    <g style="fill:#ff0000" id="g2340" transform="matrix(1.5834094,0,0,1.5834094,-113.10214,-535.93648)">
      <path d="M 504.987,740.201 C 506.297,743.052 506.998,746.063 506.998,749.177 C 506.998,767.113 483.718,781.653 454.998,781.653 C 434.278,781.653 416.388,774.085 408.031,763.133 C 406.721,760.282 406.019,757.27 406.019,754.157 C 406.019,736.22 429.3,721.681 458.019,721.681 C 478.74,721.681 496.629,729.249 504.987,740.201 z " id="path2342" style="fill: rgb(244, 72, 0);"/>
    </g>
    <g style="fill:#000000" id="g2344" transform="matrix(1.5834094,0,0,1.5834094,-113.10214,-535.93648)">
      <path d="M 530.436,755.873 C 530.808,757.94 530.999,760.047 530.999,762.184 C 530.999,790.084 498.313,812.701 457.992,812.701 C 417.671,812.701 384.985,790.084 384.985,762.184 C 389.473,787.106 420.196,806.39 457.429,806.39 C 497.75,806.39 530.436,783.773 530.436,755.873 z " id="path2346"/>
    </g>
    <g style="fill:#ffffff" id="g2348" transform="matrix(1.5834094,0,0,1.5834094,-113.10214,-535.93648)">
      <path d="M 530.999,780.143 C 520.377,802.062 491.251,817.799 456.985,817.799 C 426.325,817.799 399.781,805.201 386.924,786.848 L 385.437,766.879 C 385.274,765.615 385.178,764.338 385.151,763.049 L 385.437,766.879 C 388.758,792.601 419.93,812.701 457.992,812.701 C 498.313,812.701 530.999,790.084 530.999,762.184 L 530.999,780.143 z " id="path2350"/>
    </g>
  </g>
</svg>