<svg width="1280" height="720" xmlns="http://www.w3.org/2000/svg">
 <defs>
  <linearGradient y2="0.058289" x2="1.058677" y1="1.274227" x1="-0.479291" id="SVGID_2_">
   <stop stop-color="#D3D3D3" offset="0.3077"/>
   <stop stop-color="#FFFFFF" offset="0.6752"/>
  </linearGradient>
  <linearGradient y2="-0.300832" x2="1.669156" y1="0.915112" x1="0.079885" id="SVGID_3_">
   <stop stop-color="#D3D3D3" offset="0.3077"/>
   <stop stop-color="#FFFFFF" offset="0.6752"/>
  </linearGradient>
 </defs>
 <g>
  <title>background</title>
  <rect fill="none" id="canvas_background" height="402" width="582" y="-1" x="-1"/>
 </g>
 <g>
  <title>Layer 1</title>
  <g id="Layer_2"/>
  <g id="Ebene_1">
   <path id="svg_1" d="m431.529,442.097l0,0l0,0z" fill="#C90012"/>
   <path id="svg_2" d="m431.529,359.216l0,0l0,0z" fill="#C90012"/>
   <path id="svg_3" d="m431.529,276.306l0,0l0,0z" fill="#C90012"/>
   <path id="svg_4" d="m431.529,317.753l0,0l0,0z" fill="#C90012"/>
   <path id="svg_5" d="m431.529,483.544l0,0l0,0z" fill="#C90012"/>
   <path id="svg_6" d="m431.529,400.642l0,0l0,0z" fill="#C90012"/>
   <path id="svg_7" d="m431.529,234.842l0,0l0,0z" fill="#C90012"/>
   <path id="svg_8" d="m431.529,245.951c0,-6.11 -4.999,-11.108 -11.105,-11.108l-350.861,0c-6.112,0 -14.644,3.534 -18.963,7.855l-25.745,25.745c-4.322,4.321 -7.855,12.853 -7.855,18.963l0,226.468c0,6.111 4.999,11.109 11.106,11.109l350.86,0c6.107,0 14.644,-3.535 18.963,-7.854l25.741,-25.736c4.32,-4.316 7.854,-12.853 7.854,-18.965l0.005,-226.477z" fill="#001372"/>
   <path id="svg_9" d="m382.22,392.789l-25.729,-25.729c-4.319,-4.318 -12.854,-7.854 -18.963,-7.853l-19.248,0c-6.112,0.001 -11.11,0.001 -11.11,0.001s3.532,-3.534 7.854,-7.855l67.196,-67.193c4.32,-4.321 2.854,-7.855 -3.253,-7.855l-102.135,0c-6.111,0 -14.643,3.534 -18.963,7.855l-232.727,232.7c-1.825,1.821 -3.517,3.514 -4.871,4.866c2.012,2.011 4.786,3.259 7.836,3.259c0.005,0 0.01,0 0.016,0l99.953,0l167.988,0c6.111,0 11.122,-0.013 11.133,-0.023c0.015,-0.016 3.559,-3.562 7.88,-7.88l67.144,-67.132c4.32,-4.316 7.854,-12.853 7.854,-18.963l0,-19.235c-0.002,-6.112 -3.535,-14.648 -7.855,-18.963z" opacity="0.2"/>
   <path id="svg_10" d="m276.824,400.649c-6.108,0 -14.643,-3.536 -18.96,-7.857l-25.71,-25.718c-4.321,-4.321 -7.857,-12.855 -7.865,-18.966l-0.012,-19.246c-0.008,-6.11 3.525,-14.643 7.846,-18.964l25.741,-25.737c4.321,-4.321 12.852,-7.855 18.963,-7.855l102.14,0c6.107,0 7.573,3.534 3.253,7.855l-25.741,25.737c-4.32,4.321 -12.852,7.855 -18.963,7.855l-60.688,0c-6.112,0 -11.11,4.998 -11.11,11.108l0,19.246c0,6.11 4.998,11.108 11.106,11.106l60.702,-0.007c6.107,-0.002 14.644,3.533 18.963,7.853l25.729,25.729c4.32,4.314 7.854,12.851 7.854,18.963l0,19.235c0,6.109 -3.532,14.646 -7.854,18.963l-25.74,25.74c-4.321,4.316 -12.853,7.854 -18.964,7.854l-60.688,0c-6.112,0 -14.643,-3.536 -18.963,-7.854l-25.741,-25.74c-4.32,-4.316 -2.858,-7.854 3.253,-7.854l102.14,0c6.112,0 11.11,-4.998 11.11,-11.108l0,-19.237c0,-6.112 0,-11.11 0.003,-11.11c0.004,0 -4.994,0 -11.103,0l-60.701,0.009z" fill="url(#SVGID_2_)"/>
   <g id="svg_11" opacity="0.2">
    <path id="svg_12" d="m17.008,370.877c0,-6.109 0,-11.238 0,-11.393c0,-0.155 3.532,-3.818 7.854,-8.138l67.185,-67.186c4.321,-4.321 12.855,-7.855 18.963,-7.855l102.15,0c6.108,0 7.574,3.534 3.253,7.855l-67.197,67.182c-4.32,4.321 -7.853,7.855 -7.853,7.855s4.998,0.002 11.11,0.006l19.228,0.007c6.108,0.004 10.75,4.993 10.318,11.086l-1.114,15.593c-0.433,6.092 -1.707,11.997 -2.833,13.122c-1.125,1.125 -5.576,5.58 -9.896,9.896l-25.201,25.201c-4.32,4.315 -7.885,7.885 -7.922,7.918c-0.034,0.034 4.933,0.064 11.041,0.062l17.979,0c6.108,-0.004 14.784,3.379 19.281,7.519l26.836,24.694c4.497,4.137 8.181,7.623 8.058,7.75c-0.126,0.126 -3.766,3.762 -8.087,8.083l-34.827,34.85l-147.212,0.002c-6.107,0 -11.105,-4.998 -11.105,-11.11l-0.009,-142.999z"/>
   </g>
   <path id="svg_13" d="m111.01,442.097c-6.107,0 -11.104,-4.998 -11.104,-11.108l0,-19.235c0,-6.112 4.998,-11.11 11.104,-11.11l60.69,0c6.108,0 11.106,-4.998 11.106,-11.108l0,-19.206c0,-6.112 -4.998,-11.11 -11.106,-11.11l-60.69,0c-6.107,0 -11.104,-4.998 -11.104,-11.108l0,-19.246c0,-6.11 4.998,-11.108 11.104,-11.108l60.69,0c6.108,0 14.643,-3.534 18.964,-7.854l25.749,-25.741c4.321,-4.319 2.855,-7.853 -3.253,-7.853l-102.15,0c-6.107,0 -14.643,3.534 -18.963,7.855l-25.737,25.735c-4.32,4.321 -7.857,12.854 -7.857,18.964l0,102.125c0,6.11 3.537,14.646 7.857,18.963l25.737,25.74c4.321,4.316 12.855,7.854 18.963,7.854l102.143,0c6.112,0 7.574,-3.536 3.253,-7.855l-25.741,-25.744c-4.32,-4.321 -12.854,-7.857 -18.964,-7.857l-60.691,0.007z" fill="url(#SVGID_3_)"/>
   <g id="svg_14">
    <path id="svg_15" d="m558.605,326.562c-1.623,3.8 -3.851,7.115 -6.683,9.943c-2.832,2.836 -6.146,5.06 -9.947,6.682c-3.796,1.623 -7.838,2.434 -12.116,2.434l-8.496,0c-4.283,0 -8.324,-0.812 -12.121,-2.434c-3.8,-1.623 -7.115,-3.846 -9.942,-6.682c-2.836,-2.828 -5.063,-6.143 -6.683,-9.943c-1.626,-3.796 -2.435,-7.838 -2.435,-12.121l0,-47.858c0,-4.282 0.809,-8.324 2.435,-12.12c1.619,-3.801 3.847,-7.115 6.683,-9.947c2.827,-2.833 6.144,-5.056 9.942,-6.682c3.796,-1.619 7.838,-2.434 12.121,-2.434l8.496,0c4.278,0 8.319,0.815 12.116,2.434c3.8,1.626 7.115,3.85 9.947,6.682s5.06,6.146 6.683,9.947c1.623,3.796 2.434,7.838 2.434,12.12l0,24.964l-58.114,0l0,23.618c0,2.556 0.481,4.956 1.45,7.202c0.965,2.243 2.277,4.195 3.936,5.852c1.66,1.657 3.608,2.97 5.854,3.938c2.243,0.964 4.643,1.447 7.199,1.447l8.495,0c2.554,0 4.953,-0.482 7.199,-1.447c2.243,-0.968 4.195,-2.281 5.853,-3.938c1.657,-1.657 2.971,-3.609 3.938,-5.852c0.964,-2.246 1.451,-4.646 1.451,-7.202l0,-7.042l12.739,2.07l0,4.248c-0.001,4.283 -0.81,8.324 -2.434,12.121zm-10.306,-60.707c0,-2.553 -0.486,-4.952 -1.451,-7.199c-0.968,-2.243 -2.28,-4.194 -3.938,-5.852c-1.656,-1.658 -3.608,-2.97 -5.852,-3.938c-2.248,-0.964 -4.646,-1.45 -7.199,-1.45l-8.496,0c-2.557,0 -4.956,0.486 -7.199,1.45c-2.246,0.969 -4.194,2.281 -5.855,3.938c-1.656,1.657 -2.97,3.609 -3.934,5.852c-0.969,2.247 -1.451,4.646 -1.451,7.199l0,15.745l45.375,0l0,-15.745l0,0z" fill="#e5e5e5"/>
    <path id="svg_16" d="m698.506,343.55l0,-77.695c0,-2.553 -0.482,-4.952 -1.45,-7.199c-0.969,-2.243 -2.276,-4.194 -3.938,-5.853c-1.652,-1.657 -3.608,-2.97 -5.853,-3.938c-2.246,-0.964 -4.646,-1.45 -7.198,-1.45l-6.317,0c-2.558,0 -4.956,0.486 -7.202,1.45c-2.243,0.969 -4.21,2.281 -5.901,3.938c-1.695,1.657 -3.023,3.609 -3.991,5.853c-0.966,2.247 -1.445,4.646 -1.445,7.199l0,77.695l-12.644,0l0,-77.695c0,-2.553 -0.481,-4.952 -1.449,-7.199c-0.969,-2.243 -2.296,-4.194 -3.987,-5.853c-1.69,-1.657 -3.658,-2.97 -5.905,-3.938c-2.242,-0.964 -4.643,-1.45 -7.199,-1.45l-6.317,0c-2.558,0 -4.956,0.486 -7.198,1.45c-2.247,0.969 -4.195,2.281 -5.854,3.938c-1.657,1.657 -2.97,3.609 -3.936,5.853c-0.968,2.247 -1.45,4.646 -1.45,7.199l0,77.695l-12.74,0l0,-106.076l4.244,0l6.942,10.773c2.899,-3.938 6.54,-7.061 10.931,-9.376c4.382,-2.312 9.166,-3.471 14.344,-3.471l1.037,0c6.009,0 11.428,1.485 16.266,4.455c4.833,2.97 8.563,6.908 11.188,11.811c1.312,-2.419 2.936,-4.627 4.868,-6.629c1.934,-2.005 4.075,-3.712 6.423,-5.128c2.35,-1.416 4.905,-2.522 7.668,-3.318c2.761,-0.792 5.627,-1.19 8.597,-1.19l1.037,0c4.278,0 8.319,0.815 12.12,2.434c3.797,1.626 7.114,3.85 9.946,6.682c2.828,2.832 5.057,6.146 6.684,9.947c1.618,3.796 2.435,7.838 2.435,12.12l0,76.968l-12.747,0l0,-0.002l-0.009,0z" fill="#e5e5e5"/>
    <path id="svg_17" d="m803.343,343.55l-7.046,-10.773c-2.9,3.938 -6.525,7.061 -10.878,9.376c-4.348,2.312 -9.115,3.467 -14.294,3.467l-3.211,0c-4.286,0 -8.323,-0.812 -12.12,-2.434c-3.801,-1.623 -7.114,-3.846 -9.946,-6.682c-2.832,-2.828 -5.061,-6.143 -6.684,-9.943c-1.622,-3.796 -2.434,-7.838 -2.434,-12.121l0,-76.966l12.743,0l0,77.691c0,2.556 0.481,4.956 1.446,7.202c0.969,2.243 2.28,4.195 3.938,5.852c1.657,1.657 3.609,2.97 5.853,3.938c2.242,0.964 4.646,1.447 7.203,1.447l8.496,0c2.549,0 4.952,-0.482 7.193,-1.447c2.243,-0.968 4.198,-2.281 5.854,-3.938c1.657,-1.657 2.971,-3.609 3.936,-5.852c0.969,-2.246 1.454,-4.646 1.454,-7.202l0,-77.691l12.736,0l0,106.076l-4.239,0z" fill="#e5e5e5"/>
    <path id="svg_18" d="m837.319,343.55l0,-148.55l12.739,0l0,148.55l-12.739,0z" fill="#e5e5e5"/>
    <path id="svg_19" d="m946.404,343.55l-7.047,-10.567c-2.899,3.8 -6.524,6.854 -10.881,9.17c-4.348,2.312 -9.115,3.467 -14.289,3.467l-3.216,0c-4.282,0 -8.319,-0.812 -12.116,-2.434c-3.805,-1.623 -7.118,-3.846 -9.946,-6.682c-2.836,-2.828 -5.063,-6.143 -6.683,-9.943c-1.627,-3.796 -2.436,-7.838 -2.436,-12.121l0,-1.037c0,-4.279 0.809,-8.32 2.436,-12.121c1.618,-3.796 3.847,-7.111 6.683,-9.943c2.828,-2.832 6.144,-5.06 9.946,-6.682c3.797,-1.623 7.834,-2.434 12.116,-2.434l26.937,0l0,-16.368c0,-2.553 -0.481,-4.952 -1.45,-7.199c-0.969,-2.243 -2.276,-4.194 -3.938,-5.852c-1.652,-1.657 -3.608,-2.97 -5.853,-3.938c-2.246,-0.964 -4.646,-1.45 -7.198,-1.45l-7.459,0c-2.558,0 -4.956,0.486 -7.197,1.45c-2.248,0.969 -4.195,2.281 -5.856,3.938c-1.652,1.657 -2.97,3.609 -3.935,5.852c-0.969,2.247 -1.45,4.646 -1.45,7.199l0,3.835l-12.74,-2.075l0,-1.033c0,-4.282 0.812,-8.324 2.436,-12.12c1.622,-3.801 3.851,-7.115 6.683,-9.947c2.828,-2.833 6.146,-5.056 9.942,-6.682c3.796,-1.619 7.839,-2.434 12.12,-2.434l7.459,0c4.278,0 8.319,0.815 12.117,2.434c3.8,1.626 7.113,3.85 9.949,6.682c2.828,2.832 5.057,6.146 6.68,9.947c1.622,3.796 2.434,7.838 2.434,12.12l0,76.968l-4.248,0l0,0zm-8.497,-51.383l-26.937,0c-2.558,0 -4.956,0.486 -7.199,1.451c-2.245,0.968 -4.193,2.296 -5.852,3.988c-1.661,1.695 -2.971,3.663 -3.938,5.905c-0.97,2.247 -1.451,4.646 -1.451,7.203l0,4.451c0,2.556 0.481,4.956 1.451,7.202c0.968,2.243 2.275,4.195 3.938,5.852c1.656,1.657 3.604,2.97 5.852,3.938c2.243,0.964 4.644,1.447 7.199,1.447l8.496,0c2.553,0 4.952,-0.482 7.198,-1.447c2.242,-0.968 4.198,-2.281 5.853,-3.938c1.661,-1.657 2.971,-3.609 3.938,-5.852c0.969,-2.246 1.45,-4.646 1.45,-7.202l0.002,-22.998l0,0z" fill="#e5e5e5"/>
    <path id="svg_20" d="m1014.771,343.55c-3.864,0 -7.509,-0.724 -10.931,-2.174c-3.418,-1.451 -6.389,-3.456 -8.909,-6.009c-2.52,-2.557 -4.523,-5.526 -6.009,-8.91c-1.485,-3.383 -2.225,-7.007 -2.225,-10.876l0,-65.991l-19.063,0l0,-12.116l19.063,0l0,-25.485l12.739,-2.07l0,27.555l26.937,0l0,12.116l-26.937,0l0,66.611c0,2.143 0.398,4.129 1.194,5.955c0.788,1.833 1.879,3.437 3.261,4.818c1.383,1.381 3.004,2.472 4.868,3.264c1.866,0.792 3.864,1.189 6.009,1.189l11.604,0l0,12.121l-11.601,0.002l0,0z" fill="#e5e5e5"/>
    <path id="svg_21" d="m1052.996,211.989l0,-16.989l14.814,0l0,16.989l-14.814,0zm1.037,131.561l0,-106.076l12.74,0l0,106.076l-12.74,0z" fill="#e5e5e5"/>
    <path id="svg_22" d="m1164.93,326.562c-1.623,3.8 -3.852,7.115 -6.679,9.943c-2.837,2.836 -6.149,5.06 -9.95,6.682c-3.797,1.623 -7.838,2.434 -12.116,2.434l-8.496,0c-4.282,0 -8.319,-0.812 -12.116,-2.434c-3.805,-1.623 -7.119,-3.846 -9.946,-6.682c-2.837,-2.828 -5.062,-6.143 -6.683,-9.943c-1.627,-3.796 -2.436,-7.838 -2.436,-12.121l0,-47.858c0,-4.282 0.809,-8.324 2.436,-12.12c1.619,-3.801 3.846,-7.115 6.683,-9.947c2.827,-2.833 6.144,-5.056 9.946,-6.682c3.797,-1.619 7.834,-2.434 12.116,-2.434l8.496,0c4.278,0 8.319,0.815 12.116,2.434c3.801,1.626 7.114,3.85 9.95,6.682c2.827,2.832 5.056,6.146 6.679,9.947c1.622,3.796 2.435,7.838 2.435,12.12l0,47.858c-0.002,4.283 -0.813,8.324 -2.435,12.121zm-10.308,-60.707c0,-2.553 -0.481,-4.952 -1.449,-7.199c-0.97,-2.243 -2.276,-4.194 -3.938,-5.852c-1.653,-1.657 -3.608,-2.97 -5.853,-3.938c-2.246,-0.964 -4.646,-1.45 -7.199,-1.45l-8.496,0c-2.557,0 -4.955,0.486 -7.197,1.45c-2.247,0.969 -4.194,2.281 -5.853,3.938c-1.661,1.657 -2.971,3.609 -3.938,5.852c-0.97,2.247 -1.45,4.646 -1.45,7.199l0,49.309c0,2.556 0.48,4.956 1.45,7.202c0.968,2.243 2.276,4.195 3.938,5.852c1.656,1.657 3.604,2.97 5.853,3.938c2.242,0.964 4.643,1.447 7.197,1.447l8.496,0c2.554,0 4.953,-0.482 7.199,-1.447c2.243,-0.968 4.197,-2.281 5.853,-3.938c1.661,-1.657 2.97,-3.609 3.938,-5.852c0.968,-2.246 1.449,-4.646 1.449,-7.202l0,-49.309z" fill="#e5e5e5"/>
    <path id="svg_23" d="m1250.964,343.55l0,-77.695c0,-2.553 -0.485,-4.952 -1.451,-7.199c-0.969,-2.243 -2.28,-4.194 -3.935,-5.853c-1.661,-1.657 -3.612,-2.97 -5.855,-3.938c-2.242,-0.964 -4.646,-1.45 -7.197,-1.45l-8.492,0c-2.558,0 -4.96,0.486 -7.203,1.45c-2.241,0.969 -4.193,2.281 -5.854,3.938c-1.652,1.657 -2.97,3.609 -3.935,5.853c-0.969,2.247 -1.45,4.646 -1.45,7.199l0,77.695l-12.74,0l0,-106.076l4.248,0l6.938,10.773c2.9,-3.938 6.541,-7.061 10.931,-9.376c4.382,-2.312 9.166,-3.471 14.349,-3.471l3.211,0c4.281,0 8.319,0.815 12.12,2.434c3.797,1.626 7.11,3.85 9.942,6.682s5.061,6.146 6.683,9.947c1.623,3.796 2.436,7.838 2.436,12.12l0,76.968l-12.746,-0.001l0,0z" fill="#e5e5e5"/>
    <path id="svg_24" d="m563.109,496.258c0,4.278 -0.865,8.198 -2.588,11.757c-1.729,3.562 -4.075,6.613 -7.045,9.17c-2.971,2.559 -6.406,4.539 -10.308,5.955c-3.903,1.416 -7.995,2.12 -12.276,2.12l-8.492,0c-4.283,0 -8.377,-0.812 -12.277,-2.434c-3.903,-1.623 -7.32,-3.843 -10.257,-6.684c-2.937,-2.823 -5.28,-6.14 -7.042,-9.942c-1.76,-3.797 -2.641,-7.838 -2.641,-12.116l0,-4.248l12.739,-2.074l0,7.042c0,2.558 0.531,4.961 1.604,7.202c1.07,2.243 2.503,4.194 4.301,5.854c1.795,1.653 3.866,2.971 6.217,3.936c2.346,0.965 4.799,1.447 7.354,1.447l8.491,0c2.558,0 5.006,-0.376 7.355,-1.135c2.347,-0.766 4.438,-1.853 6.27,-3.269c1.829,-1.416 3.28,-3.123 4.352,-5.129c1.068,-1.997 1.604,-4.277 1.604,-6.835c0,-3.797 -0.826,-6.903 -2.487,-9.323c-1.657,-2.419 -3.851,-4.438 -6.575,-6.062c-2.729,-1.623 -5.836,-2.964 -9.322,-4.034c-3.49,-1.071 -7.064,-2.145 -10.725,-3.215c-3.663,-1.071 -7.236,-2.296 -10.725,-3.674c-3.485,-1.388 -6.594,-3.2 -9.322,-5.442c-2.729,-2.242 -4.918,-5.06 -6.575,-8.442c-1.661,-3.384 -2.487,-7.593 -2.487,-12.638c0,-4.278 0.826,-8.196 2.487,-11.757c1.657,-3.561 3.899,-6.613 6.731,-9.17s6.127,-4.539 9.894,-5.955c3.763,-1.416 7.785,-2.128 12.067,-2.128l7.459,0c4.282,0 8.323,0.819 12.12,2.435c3.796,1.631 7.115,3.852 9.947,6.683c2.827,2.834 5.056,6.146 6.683,9.951c1.618,3.797 2.434,7.838 2.434,12.116l0,0.413l-12.744,2.074l0,-3.215c0,-2.55 -0.48,-4.953 -1.45,-7.195c-0.97,-2.241 -2.276,-4.193 -3.935,-5.854c-1.657,-1.653 -3.608,-2.972 -5.854,-3.937c-2.243,-0.964 -4.644,-1.453 -7.198,-1.453l-7.459,0c-2.554,0 -4.957,0.384 -7.199,1.142c-2.243,0.766 -4.195,1.853 -5.853,3.261c-1.657,1.424 -2.971,3.13 -3.938,5.128c-0.97,2.006 -1.451,4.287 -1.451,6.844c0,3.658 0.831,6.646 2.488,8.955c1.657,2.319 3.85,4.271 6.579,5.855c2.725,1.592 5.833,2.916 9.322,3.985c3.486,1.072 7.042,2.175 10.67,3.314c3.625,1.141 7.181,2.436 10.67,3.889c3.486,1.446 6.595,3.314 9.323,5.588c2.729,2.28 4.922,5.129 6.579,8.552c1.658,3.423 2.485,7.648 2.485,12.692z" fill="#e5e5e5"/>
    <path id="svg_25" d="m626.196,523.194c-3.865,0 -7.509,-0.729 -10.927,-2.175c-3.421,-1.455 -6.392,-3.461 -8.909,-6.01c-2.521,-2.557 -4.522,-5.524 -6.009,-8.908c-1.484,-3.385 -2.229,-7.013 -2.229,-10.877l0,-65.996l-19.059,0l0,-12.116l19.059,0l0,-25.479l12.74,-2.072l0,27.555l26.938,0l0,12.117l-26.937,0l0,66.613c0,2.145 0.397,4.126 1.193,5.955c0.792,1.829 1.879,3.438 3.262,4.813c1.381,1.386 3.004,2.473 4.867,3.27c1.868,0.788 3.869,1.188 6.008,1.188l11.604,0l0,12.123l-11.601,-0.001l0,0z" fill="#e5e5e5"/>
    <path id="svg_26" d="m727.821,523.194l-7.042,-10.57c-2.899,3.804 -6.527,6.856 -10.876,9.169c-4.353,2.313 -9.116,3.468 -14.3,3.468l-3.207,0c-4.285,0 -8.327,-0.812 -12.123,-2.434c-3.802,-1.623 -7.114,-3.844 -9.943,-6.685c-2.836,-2.823 -5.063,-6.139 -6.682,-9.941c-1.627,-3.796 -2.436,-7.839 -2.436,-12.116l0,-1.041c0,-4.277 0.809,-8.32 2.436,-12.116c1.617,-3.797 3.846,-7.109 6.682,-9.941c2.829,-2.832 6.144,-5.062 9.943,-6.684c3.796,-1.622 7.838,-2.435 12.123,-2.435l26.933,0l0,-16.372c0,-2.549 -0.485,-4.953 -1.449,-7.195c-0.97,-2.241 -2.28,-4.193 -3.936,-5.854c-1.661,-1.653 -3.612,-2.972 -5.854,-3.937c-2.242,-0.964 -4.646,-1.453 -7.199,-1.453l-7.459,0c-2.557,0 -4.955,0.489 -7.201,1.453c-2.243,0.965 -4.194,2.281 -5.853,3.937c-1.657,1.66 -2.971,3.612 -3.936,5.854c-0.97,2.242 -1.45,4.646 -1.45,7.195l0,3.834l-12.744,-2.074l0,-1.032c0,-4.278 0.813,-8.319 2.436,-12.116c1.623,-3.806 3.85,-7.117 6.683,-9.95c2.832,-2.832 6.146,-5.052 9.946,-6.684c3.796,-1.614 7.838,-2.435 12.119,-2.435l7.459,0c4.283,0 8.32,0.818 12.121,2.435c3.797,1.632 7.109,3.852 9.941,6.684c2.832,2.833 5.061,6.146 6.684,9.95c1.623,3.797 2.435,7.838 2.435,12.116l0,76.972l-4.251,-0.002l0,0zm-8.493,-51.384l-26.932,0c-2.562,0 -4.961,0.482 -7.202,1.447c-2.247,0.974 -4.193,2.296 -5.854,3.988c-1.657,1.699 -2.971,3.666 -3.936,5.908c-0.969,2.241 -1.45,4.646 -1.45,7.202l0,4.446c0,2.559 0.481,4.96 1.45,7.202c0.965,2.243 2.276,4.194 3.936,5.855c1.661,1.651 3.607,2.97 5.854,3.935c2.241,0.965 4.643,1.447 7.202,1.447l8.491,0c2.554,0 4.957,-0.482 7.199,-1.447c2.241,-0.965 4.193,-2.28 5.854,-3.935c1.652,-1.661 2.966,-3.612 3.936,-5.855c0.964,-2.242 1.449,-4.646 1.449,-7.202l0.003,-22.991l0,0z" fill="#e5e5e5"/>
    <path id="svg_27" d="m796.193,523.194c-3.869,0 -7.514,-0.729 -10.928,-2.175c-3.421,-1.455 -6.392,-3.461 -8.908,-6.01c-2.526,-2.557 -4.523,-5.524 -6.01,-8.908c-1.484,-3.385 -2.229,-7.013 -2.229,-10.877l0,-65.996l-19.059,0l0,-12.116l19.059,0l0,-25.479l12.741,-2.072l0,27.555l26.932,0l0,12.117l-26.931,0l0,66.613c0,2.145 0.395,4.126 1.188,5.955c0.796,1.829 1.883,3.438 3.266,4.813c1.382,1.386 3.005,2.473 4.867,3.27c1.864,0.788 3.869,1.188 6.01,1.188l11.6,0l0,12.123l-11.598,-0.001l0,0z" fill="#e5e5e5"/>
    <path id="svg_28" d="m834.419,391.632l0,-16.987l14.813,0l0,16.987l-14.813,0zm1.036,131.562l0,-106.081l12.74,0l0,106.081l-12.74,0l0,0z" fill="#e5e5e5"/>
    <path id="svg_29" d="m946.352,506.201c-1.623,3.805 -3.851,7.118 -6.683,9.941c-2.832,2.841 -6.146,5.062 -9.942,6.685c-3.802,1.622 -7.839,2.434 -12.121,2.434l-8.492,0c-4.286,0 -8.327,-0.812 -12.124,-2.434c-3.796,-1.623 -7.109,-3.844 -9.941,-6.685c-2.832,-2.823 -5.061,-6.139 -6.684,-9.941c-1.623,-3.796 -2.436,-7.839 -2.436,-12.116l0,-47.861c0,-4.278 0.813,-8.319 2.436,-12.116c1.623,-3.806 3.852,-7.117 6.684,-9.95c2.831,-2.832 6.146,-5.052 9.941,-6.684c3.797,-1.614 7.838,-2.435 12.124,-2.435l8.492,0c4.282,0 8.319,0.819 12.121,2.435c3.797,1.632 7.11,3.852 9.942,6.684c2.831,2.833 5.06,6.146 6.683,9.95c1.622,3.797 2.434,7.838 2.434,12.116l0,47.861c-0.003,4.278 -0.812,8.32 -2.434,12.116zm-10.308,-60.705c0,-2.549 -0.485,-4.953 -1.45,-7.195c-0.968,-2.241 -2.281,-4.193 -3.936,-5.854c-1.661,-1.653 -3.611,-2.972 -5.854,-3.937c-2.241,-0.964 -4.646,-1.453 -7.198,-1.453l-8.492,0c-2.558,0 -4.96,0.489 -7.202,1.453c-2.242,0.965 -4.193,2.281 -5.854,3.937c-1.652,1.66 -2.97,3.612 -3.936,5.854c-0.968,2.242 -1.449,4.646 -1.449,7.195l0,49.31c0,2.558 0.481,4.959 1.449,7.201c0.966,2.243 2.281,4.194 3.936,5.855c1.661,1.651 3.612,2.97 5.854,3.935c2.242,0.966 4.646,1.447 7.202,1.447l8.492,0c2.554,0 4.957,-0.481 7.198,-1.447c2.243,-0.965 4.193,-2.28 5.854,-3.935c1.652,-1.661 2.968,-3.612 3.936,-5.855c0.965,-2.242 1.45,-4.646 1.45,-7.201l0,-49.31z" fill="#e5e5e5"/>
    <path id="svg_30" d="m1032.385,523.194l0,-77.698c0,-2.549 -0.481,-4.953 -1.449,-7.195c-0.97,-2.241 -2.277,-4.193 -3.938,-5.854c-1.652,-1.653 -3.608,-2.972 -5.853,-3.937c-2.246,-0.964 -4.646,-1.453 -7.198,-1.453l-8.496,0c-2.558,0 -4.956,0.489 -7.198,1.453c-2.246,0.965 -4.193,2.281 -5.853,3.937c-1.661,1.66 -2.97,3.612 -3.938,5.854c-0.97,2.242 -1.451,4.646 -1.451,7.195l0,77.698l-12.739,0l0,-106.081l4.243,0l6.942,10.775c2.9,-3.939 6.545,-7.063 10.931,-9.375c4.387,-2.312 9.17,-3.477 14.345,-3.477l3.215,0c4.278,0 8.32,0.818 12.117,2.436c3.8,1.629 7.114,3.851 9.95,6.683c2.827,2.833 5.056,6.146 6.679,9.951c1.622,3.795 2.435,7.838 2.435,12.114l0,76.974l-12.744,0l0,0z" fill="#e5e5e5"/>
   </g>
  </g>
  <g id="Layer_3"/>
 </g>
</svg>