<?xml version="1.0" encoding="UTF-8" standalone="no"?>
<!-- Generator: Adobe Illustrator 16.0.0, SVG Export Plug-In . SVG Version: 6.00 Build 0)  -->

<svg
   xmlns:dc="http://purl.org/dc/elements/1.1/"
   xmlns:cc="http://creativecommons.org/ns#"
   xmlns:rdf="http://www.w3.org/1999/02/22-rdf-syntax-ns#"
   xmlns:svg="http://www.w3.org/2000/svg"
   xmlns="http://www.w3.org/2000/svg"
   xmlns:sodipodi="http://sodipodi.sourceforge.net/DTD/sodipodi-0.dtd"
   xmlns:inkscape="http://www.inkscape.org/namespaces/inkscape"
   version="1.1"
   id="Layer_1"
   x="0px"
   y="0px"
   width="1280px"
   height="720px"
   viewBox="0 0 1280 720"
   enable-background="new 0 0 1280 720"
   xml:space="preserve"
   inkscape:version="0.48.5 r10040"
   sodipodi:docname="RetrOrangePi_invaders.svg"><metadata
     id="metadata3162"><rdf:RDF><cc:Work
         rdf:about=""><dc:format>image/svg+xml</dc:format><dc:type
           rdf:resource="http://purl.org/dc/dcmitype/StillImage" /><dc:title></dc:title></cc:Work></rdf:RDF></metadata><defs
     id="defs3160"><filter
       inkscape:label="Fluorescence"
       inkscape:menu="Color"
       inkscape:menu-tooltip="Oversaturate colors which can be fluorescent in real world"
       x="0"
       y="0"
       width="1"
       height="1"
       color-interpolation-filters="sRGB"
       id="filter3204"><feColorMatrix
         values="1"
         in="SourceGraphic"
         type="saturate"
         result="result2"
         id="feColorMatrix3206" /><feFlood
         flood-color="rgb(254,102,0)"
         flood-opacity="1"
         result="result1"
         id="feFlood3208" /><feBlend
         in2="result2"
         mode="multiply"
         in="result1"
         result="result3"
         id="feBlend3210" /><feComposite
         operator="in"
         k2="1"
         result="fbSourceGraphic"
         in2="SourceGraphic"
         id="feComposite3212" /><feColorMatrix
         result="fbSourceGraphicAlpha"
         in="fbSourceGraphic"
         values="0 0 0 -1 0 0 0 0 -1 0 0 0 0 -1 0 0 0 0 1 0"
         id="feColorMatrix3214" /><feColorMatrix
         id="feColorMatrix3216"
         type="hueRotate"
         values="0"
         in="fbSourceGraphic" /><feColorMatrix
         id="feColorMatrix3218"
         type="saturate"
         values="1" /><feColorMatrix
         id="feColorMatrix3220"
         type="matrix"
         values="2 -1 0 0 0 0 2 -1 0 0 -1 0 2 0 0 0 0 0 1 0 " /></filter></defs><sodipodi:namedview
     pagecolor="#ffffff"
     bordercolor="#666666"
     borderopacity="1"
     objecttolerance="10"
     gridtolerance="10"
     guidetolerance="10"
     inkscape:pageopacity="0"
     inkscape:pageshadow="2"
     inkscape:window-width="1280"
     inkscape:window-height="695"
     id="namedview3158"
     showgrid="false"
     inkscape:zoom="0.578125"
     inkscape:cx="640"
     inkscape:cy="360"
     inkscape:window-x="0"
     inkscape:window-y="0"
     inkscape:window-maximized="1"
     inkscape:current-layer="Layer_1" /><path
     fill="#2D2D2D"
     d="M329.839,144.913l0.118-16.309l-16.309-0.118l0.118-16.309l-16.31-0.118l0.118-16.309l-16.309-0.118  l-0.118,16.309l-32.618-0.235l0.117-16.309l-16.309-0.118l-0.118,16.309l-16.31-0.117l-0.117,16.309l-16.309-0.118l-0.118,16.309  l-16.309-0.117l-0.353,48.927l16.309,0.118l0.235-32.619l16.309,0.118l-0.235,32.618l16.31,0.118l-0.118,16.31l-16.309-0.118  l-0.117,16.31l16.309,0.117v0l16.309,0.118l0.235-32.618l32.618,0.235l-0.234,32.619l16.309,0.118v0l16.309,0.118l0.118-16.309  l-16.309-0.118l0.118-16.309l16.309,0.117l0.235-32.618l16.309,0.118l-0.235,32.618l16.309,0.118l0.353-48.928L329.839,144.913z   M248.176,160.634l-16.31-0.117l0.118-16.309l16.31,0.117L248.176,160.634z M297.104,160.987l-16.309-0.118l0.118-16.309  l16.309,0.117L297.104,160.987z"
     id="path3046" /><g
     id="g3048"><path
       fill="#3CC808"
       d="M591.865,93.886l15.704,0.084c0.478,5.338-0.074,10.708,0.223,16.055c5.271-0.161,10.554-0.156,15.823,0.06   c-0.018,5.331-0.057,10.662-0.082,15.992c-5.364-0.029-10.729-0.058-16.093-0.086c-0.043-5.227,0.194-10.458,0.019-15.682   c-0.044-0.045-0.135-0.136-0.18-0.182c-5.222-0.234-10.455-0.042-15.681-0.152C591.7,104.614,591.458,99.24,591.865,93.886z"
       id="path3050" /><path
       fill="#3CC808"
       d="M687.455,94.399l16.143,0.086c0.126,5.363-0.009,10.729-0.012,16.091   c-5.418-0.016-10.837-0.065-16.254-0.08c-0.039,5.309-0.059,10.617-0.088,15.923c-5.366-0.029-10.73-0.058-16.094-0.086   c0.033-5.329,0.047-10.659,0.088-15.989c5.272-0.146,10.553-0.122,15.824,0.106C687.416,105.105,686.92,99.732,687.455,94.399z"
       id="path3052" /></g><g
     id="g3054"><g
       id="g3056"><path
         fill="#EC6109"
         d="M559.754,109.755c5.354-0.194,10.725-0.126,16.076,0.123c-0.04,10.589-0.119,21.177-0.164,31.766    c5.218-0.048,10.443-0.1,15.659,0.152c0.244-5.292,0.104-10.592,0.191-15.886c5.308,0.019,10.615,0.055,15.923,0.082    c5.364,0.029,10.729,0.058,16.093,0.086c15.873,0.085,31.745,0.17,47.618,0.255c5.363,0.028,10.728,0.057,16.094,0.086    c5.418,0.033,10.835,0.052,16.256,0.091c-0.017,5.252-0.062,10.503-0.078,15.756c5.306,0.035,10.613,0.063,15.922,0.085    c0.063-10.589,0.117-21.178,0.168-31.767c5.285-0.187,10.577,0.035,15.866-0.012c0.116,4.15,0.004,8.303-0.003,12.455    c-0.072,15.794-0.18,31.589-0.241,47.385c-6.639,0.126-13.279-0.055-19.919-0.039c-0.041,6.614-0.075,13.227-0.098,19.842    c-5.29,0.129-10.582-0.03-15.871-0.029c-0.193,6.636-0.1,13.278-0.17,19.917c5.225,0.111,10.459-0.082,15.679,0.152    c0.044,0.045,0.135,0.136,0.179,0.182c0.161,4.673-0.031,9.354,0.007,14.031c-0.136,0.665,0.331,2.247-1.02,1.8    c-4.429,0.041-8.856-0.049-13.284-0.044c-0.672-0.133-2.242,0.332-1.801-1.02c-0.054-4.978,0.09-9.955,0.066-14.93    c-5.287-0.038-10.571-0.061-15.857-0.078c-0.18-6.699,0.174-13.399-0.062-20.096c-23.882-0.108-47.764-0.258-71.646-0.372    c-0.263,6.685-0.095,13.378-0.204,20.068c-5.227,0.055-10.457-0.196-15.68-0.016c-0.045,0.046-0.135,0.135-0.182,0.18    c-0.234,5.221-0.041,10.454-0.152,15.68c-5.308-0.023-10.616-0.054-15.923-0.085c0.016-5.359,0.085-10.719,0.04-16.079    c5.313-0.028,10.626,0.109,15.938,0.024c0.102-6.014,0.09-12.03,0.148-18.044c-0.126-0.672,0.355-2.241-1.001-1.811    c-6.359-0.104-12.719-0.04-19.078-0.117c0.023-6.635,0.076-13.269,0.1-19.903c-5.286-0.038-10.572-0.06-15.858-0.078    c-0.07-1.938-0.048-3.879-0.044-5.817C559.57,145.738,559.62,127.747,559.754,109.755z M611.539,141.996    c-0.09,5.222-0.134,10.448-0.069,15.672c5.275,0.091,10.554,0.13,15.83,0.068c0.057-5.235,0.24-10.477-0.014-15.706    C622.037,142.019,616.787,141.911,611.539,141.996z M667.581,142.245c-0.033,5.308-0.062,10.616-0.085,15.923    c5.242,0.007,10.482,0.12,15.725,0.034c0.078-5.291,0.194-10.587-0.064-15.874C677.965,142.295,672.772,142.269,667.581,142.245z"
         id="path3058" /></g></g><g
     id="g3060"><rect
       x="994.044"
       y="211.053"
       transform="matrix(-1 0.003 -0.003 -1 2005.9445 436.359)"
       fill="#2D2D2D"
       width="17.213"
       height="17.212"
       id="rect3062" /><path
       fill="#2D2D2D"
       d="M1079.88,141.973l-0.052-17.213l-17.212,0.051l-0.051-17.213l-17.213,0.051l0.051,17.213l-51.639,0.152   l-0.05-17.213l-17.214,0.051l0.051,17.212l-17.213,0.051l0.051,17.213l-17.212,0.051l0.203,68.852l17.212-0.051l-0.051-17.213   l17.213-0.051l0.051,17.213l17.213-0.051l-0.05-17.212l17.212-0.051l0.051,17.212l17.213-0.05l0.051,17.213l17.213-0.051   l-0.051-17.213l-17.213,0.051l-0.051-17.213l17.213-0.05l0.051,17.213l17.213-0.051l-0.051-17.213l17.212-0.051l0.051,17.213   l-17.212,0.051l0.051,17.212l17.212-0.051l-0.051-17.212l17.213-0.051l-0.203-68.851L1079.88,141.973z M1011.079,159.389   l-34.426,0.102l-0.051-17.213l34.426-0.101L1011.079,159.389z M1062.718,159.237l-34.426,0.102l-0.051-17.213l34.426-0.102   L1062.718,159.237z"
       id="path3064" /><rect
       x="959.618"
       y="211.155"
       transform="matrix(-1 0.003 -0.003 -1 1937.0933 436.6637)"
       fill="#2D2D2D"
       width="17.213"
       height="17.212"
       id="rect3066" /></g><path
     fill="#2D2D2D"
     d="M774.088,226.159h14.521v-14.522h-14.521V226.159z M817.652,226.159h14.521v-14.522h-14.521V226.159z   M788.609,211.637h14.521v-14.521h-14.521V211.637z M846.695,197.115h-14.521v14.521h14.521v14.521h14.521v-14.522h-14.521V197.115z   M890.261,153.549v-14.521h-14.521v-14.522h-14.522v-14.521h-14.521V95.463h-14.521v14.521h-14.521v14.521l-14.521,0v14.521h-14.521  v14.521h-14.521v29.043h29.043v14.521h72.608v-14.521h29.043v-29.043H890.261z M832.174,168.071h-29.043v-14.522h29.043V168.071z   M875.739,168.071h-29.044v-14.522h29.044V168.071z M890.261,197.115h-14.521v14.521h14.521v14.521h14.521v-14.522h-14.521V197.115z  "
     id="path3068" /><path
     fill="#2D2D2D"
     d="M423.646,108.122l0,14.315l14.315,0l0-14.315L423.646,108.122z M495.223,136.751v14.315h-14.316l0,14.315  l-14.315,0l0-14.315l14.315,0l0-14.314h-14.315l0-14.315l-28.63,0v14.315h-14.315l0,14.315h14.315v14.315h-14.315v-14.315h-14.315  l0-14.315h-14.315l0,85.892l28.63,0v-14.314h-14.315l0-28.631h14.315l0,14.315l14.315,0l0,14.315l28.631,0v-14.314l14.315,0  l0-14.315h14.315l0,28.631h-14.315v14.315l28.63,0l0-85.892H495.223z M480.907,108.122h-14.315l0,14.315h14.315V108.122z"
     id="path3070" /><g
     id="g3072"><path
       fill="#EC6109"
       d="M399.138,339.238V285.24c0-0.327,0.082-0.681,0.246-1.063c0.164-0.381,0.381-0.722,0.654-1.022   c0.272-0.299,0.585-0.545,0.941-0.736c0.354-0.191,0.696-0.287,1.022-0.287h36.817c0.381,0,0.79,0.096,1.227,0.287   c0.436,0.191,0.831,0.437,1.187,0.736c0.354,0.3,0.64,0.654,0.859,1.063c0.217,0.409,0.327,0.805,0.327,1.186v20.617   c0,0.382,0.109,0.696,0.327,0.941c0.217,0.246,0.504,0.45,0.859,0.614c0.354,0.164,0.749,0.3,1.186,0.409   c0.436,0.11,0.886,0.232,1.35,0.368c0.463,0.137,0.913,0.286,1.35,0.45c0.436,0.164,0.818,0.396,1.145,0.696   c0.328,0.3,0.6,0.654,0.818,1.063c0.217,0.409,0.327,0.941,0.327,1.595v27.49c0,0.164-0.028,0.341-0.082,0.532   c-0.055,0.192-0.123,0.368-0.205,0.532c-0.082,0.164-0.178,0.3-0.287,0.409c-0.11,0.11-0.245,0.164-0.409,0.164h-3.845   c-0.218,0-0.423-0.041-0.613-0.123c-0.192-0.082-0.382-0.19-0.573-0.328c-0.192-0.135-0.341-0.299-0.45-0.491   c-0.11-0.19-0.164-0.368-0.164-0.532v-23.072c0-0.217-0.082-0.45-0.246-0.695c-0.164-0.246-0.368-0.45-0.613-0.614   c-0.246-0.164-0.505-0.286-0.777-0.368c-0.273-0.082-0.546-0.123-0.818-0.123h-27.162c-0.219,0-0.464,0.055-0.736,0.164   c-0.273,0.11-0.532,0.246-0.777,0.409c-0.245,0.164-0.438,0.368-0.573,0.614c-0.137,0.245-0.205,0.505-0.205,0.777v22.581   c0,0.218-0.069,0.437-0.205,0.654c-0.136,0.219-0.3,0.409-0.491,0.573c-0.192,0.164-0.409,0.3-0.655,0.409   c-0.245,0.11-0.478,0.164-0.695,0.164h-7.936c-0.218,0-0.464-0.054-0.736-0.164c-0.274-0.109-0.505-0.258-0.696-0.45   c-0.191-0.19-0.355-0.409-0.491-0.654C399.206,339.77,399.138,339.511,399.138,339.238z M407.646,289.413   c-0.327,0-0.601,0.11-0.818,0.327c-0.219,0.218-0.328,0.464-0.328,0.736v15.954c0,0.273,0.108,0.519,0.328,0.736   c0.217,0.219,0.491,0.327,0.818,0.327h26.426c0.328,0,0.6-0.108,0.818-0.327c0.217-0.217,0.327-0.463,0.327-0.736v-15.954   c0-0.272-0.11-0.518-0.327-0.736c-0.219-0.217-0.491-0.327-0.818-0.327H407.646z"
       id="path3074" /><path
       fill="#EC6109"
       d="M456.653,303.158c0-0.327,0.095-0.655,0.286-0.982c0.19-0.327,0.45-0.613,0.777-0.859   s0.667-0.436,1.023-0.573c0.354-0.135,0.722-0.205,1.104-0.205h31.335c0.327,0,0.681,0.082,1.063,0.246   c0.381,0.164,0.722,0.368,1.022,0.613c0.299,0.246,0.559,0.546,0.777,0.9c0.217,0.355,0.327,0.723,0.327,1.104v15.954   c0,0.273-0.082,0.532-0.245,0.777c-0.164,0.245-0.368,0.478-0.614,0.695c-0.246,0.219-0.505,0.396-0.777,0.532   c-0.273,0.137-0.546,0.205-0.818,0.205h-22.499c-0.274,0-0.519,0.11-0.736,0.327c-0.219,0.219-0.328,0.464-0.328,0.736v11.208   c0,0.164,0.068,0.341,0.205,0.532c0.136,0.191,0.313,0.286,0.532,0.286h16.936c0.164,0,0.34-0.095,0.532-0.286   c0.19-0.191,0.286-0.368,0.286-0.532v-4.09c0-0.217,0.109-0.436,0.327-0.655c0.217-0.217,0.436-0.327,0.655-0.327h5.318   c0.164,0,0.313,0.028,0.45,0.082c0.136,0.055,0.258,0.137,0.368,0.245c0.109,0.11,0.205,0.233,0.287,0.368   c0.082,0.137,0.123,0.287,0.123,0.45v9c0,0.273-0.082,0.546-0.245,0.818c-0.164,0.274-0.355,0.532-0.573,0.777   c-0.219,0.246-0.464,0.438-0.736,0.573c-0.274,0.137-0.546,0.205-0.818,0.205h-32.153c-0.382,0-0.765-0.082-1.146-0.246   c-0.382-0.164-0.724-0.368-1.023-0.613c-0.3-0.246-0.546-0.545-0.736-0.9c-0.191-0.354-0.286-0.696-0.286-1.023V303.158z    M469.089,306.921c-0.218,0-0.396,0.082-0.532,0.245c-0.137,0.164-0.205,0.327-0.205,0.491v6.791c0,0.218,0.068,0.396,0.205,0.532   c0.136,0.137,0.313,0.205,0.532,0.205h16.854c0.164,0,0.327-0.068,0.491-0.205c0.164-0.136,0.246-0.313,0.246-0.532v-6.791   c0-0.164-0.082-0.328-0.246-0.491s-0.327-0.245-0.491-0.245H469.089z"
       id="path3076" /><path
       fill="#EC6109"
       d="M505.905,288.513h4.091c0.491,0,0.9,0.164,1.228,0.491c0.327,0.327,0.491,0.709,0.491,1.146v10.472h8.917   c0.218,0,0.436,0.069,0.655,0.205c0.217,0.137,0.409,0.3,0.573,0.491c0.164,0.192,0.299,0.396,0.409,0.614   c0.108,0.218,0.164,0.437,0.164,0.654v8.59c0,0.164-0.041,0.341-0.123,0.532c-0.082,0.191-0.191,0.355-0.327,0.491   c-0.137,0.137-0.286,0.259-0.45,0.368c-0.164,0.11-0.328,0.164-0.491,0.164h-9.327v20.863c0,0.11,0.027,0.245,0.082,0.409   c0.054,0.164,0.15,0.314,0.287,0.45c0.135,0.137,0.272,0.246,0.409,0.327c0.135,0.082,0.286,0.123,0.45,0.123h4.418   c0.164,0,0.327,0.041,0.491,0.123c0.164,0.082,0.313,0.192,0.45,0.327c0.136,0.137,0.246,0.3,0.327,0.491   c0.082,0.191,0.123,0.368,0.123,0.532v3.19c0,0.491-0.137,0.9-0.409,1.228c-0.273,0.327-0.628,0.491-1.063,0.491h-11.373   c-0.437,0-0.818-0.164-1.145-0.491c-0.328-0.328-0.491-0.708-0.491-1.146V307.33h-3.354c-0.164,0-0.314-0.027-0.45-0.082   c-0.137-0.054-0.273-0.15-0.409-0.287c-0.137-0.135-0.246-0.272-0.327-0.409c-0.082-0.136-0.123-0.287-0.123-0.45v-4.336   c0-0.108,0.027-0.231,0.082-0.368c0.054-0.135,0.123-0.258,0.205-0.368c0.082-0.108,0.19-0.204,0.327-0.286   c0.136-0.082,0.258-0.123,0.368-0.123h3.682v-10.472c0-0.436,0.164-0.818,0.491-1.146   C505.087,288.677,505.468,288.513,505.905,288.513z"
       id="path3078" /><path
       fill="#EC6109"
       d="M529.141,303.73c0-0.381,0.095-0.749,0.287-1.104c0.19-0.354,0.45-0.682,0.777-0.982   c0.327-0.299,0.681-0.544,1.063-0.736c0.381-0.19,0.763-0.286,1.146-0.286h24.462c0.327,0,0.654,0.082,0.982,0.245   c0.327,0.164,0.64,0.368,0.941,0.614c0.299,0.246,0.532,0.532,0.695,0.859c0.164,0.328,0.245,0.655,0.245,0.982v7.772   c0,0.219-0.028,0.437-0.082,0.654c-0.055,0.219-0.137,0.423-0.246,0.614c-0.11,0.192-0.245,0.341-0.409,0.45   c-0.164,0.11-0.355,0.164-0.572,0.164h-4.827c-0.164,0-0.341-0.041-0.532-0.123c-0.192-0.082-0.368-0.176-0.532-0.286   c-0.164-0.109-0.286-0.246-0.368-0.409c-0.082-0.164-0.123-0.327-0.123-0.491v-3.845c0-0.217-0.123-0.422-0.368-0.614   c-0.246-0.19-0.505-0.286-0.777-0.286h-13.254c-0.164,0-0.3,0.041-0.409,0.123c-0.11,0.082-0.205,0.178-0.287,0.286   c-0.082,0.11-0.151,0.246-0.205,0.409c-0.055,0.164-0.082,0.3-0.082,0.409v5.645c0,0.491,0.054,0.969,0.164,1.432   c0.108,0.464,0.272,0.928,0.491,1.391c0.217,0.464,0.463,0.928,0.736,1.391c0.272,0.464,0.544,0.928,0.818,1.391   c0.272,0.464,0.544,0.914,0.818,1.35c0.272,0.438,0.504,0.887,0.695,1.35c0.191,0.464,0.354,0.941,0.491,1.432   c0.135,0.491,0.205,0.982,0.205,1.473v14.236c0,0.219-0.069,0.45-0.205,0.695c-0.137,0.246-0.3,0.464-0.491,0.655   c-0.191,0.191-0.409,0.355-0.654,0.491c-0.246,0.137-0.505,0.205-0.777,0.205h-7.772c-0.273,0-0.532-0.082-0.777-0.246   c-0.246-0.164-0.464-0.354-0.655-0.573c-0.192-0.217-0.341-0.462-0.45-0.736c-0.11-0.272-0.164-0.544-0.164-0.818V303.73z"
       id="path3080" /><path
       fill="#EC6109"
       d="M568.657,282.131h41.889c0.599,0,1.158,0.11,1.677,0.327c0.518,0.219,0.968,0.519,1.35,0.9   c0.381,0.382,0.682,0.833,0.9,1.35c0.217,0.519,0.328,1.078,0.328,1.677v50.643c0,0.601-0.11,1.16-0.328,1.677   c-0.218,0.519-0.519,0.969-0.9,1.35c-0.382,0.382-0.832,0.683-1.35,0.9c-0.519,0.218-1.078,0.327-1.677,0.327h-41.889   c-0.601,0-1.16-0.109-1.677-0.327c-0.519-0.217-0.969-0.518-1.35-0.9c-0.382-0.381-0.683-0.831-0.9-1.35   c-0.218-0.518-0.327-1.076-0.327-1.677v-50.643c0-0.6,0.109-1.158,0.327-1.677c0.217-0.518,0.518-0.968,0.9-1.35   c0.381-0.381,0.831-0.681,1.35-0.9C567.498,282.241,568.056,282.131,568.657,282.131z M574.957,288.268   c-0.655,0-1.174,0.055-1.555,0.164c-0.382,0.11-0.683,0.286-0.9,0.532c-0.219,0.246-0.355,0.587-0.409,1.022   c-0.055,0.438-0.082,0.982-0.082,1.637v39.435c0,0.818,0.041,1.446,0.123,1.881c0.082,0.438,0.246,0.765,0.491,0.982   c0.246,0.219,0.545,0.355,0.9,0.409c0.354,0.055,0.831,0.082,1.432,0.082h26.017c0.436,0,0.777-0.027,1.022-0.082   c0.246-0.054,0.422-0.164,0.532-0.327c0.109-0.164,0.19-0.381,0.246-0.655c0.054-0.272,0.082-0.626,0.082-1.063v-15.545   c0-0.436,0.054-0.913,0.164-1.432c0.109-0.518,0.272-1.022,0.491-1.514c0.217-0.491,0.45-0.995,0.695-1.514   c0.246-0.518,0.491-1.022,0.736-1.513c0.246-0.491,0.504-0.954,0.777-1.391c0.272-0.436,0.503-0.818,0.695-1.146   c0.19-0.327,0.34-0.626,0.45-0.9c0.108-0.272,0.164-0.462,0.164-0.573v-15.135c0-0.708-0.014-1.281-0.041-1.718   c-0.028-0.436-0.123-0.777-0.287-1.023c-0.164-0.245-0.45-0.409-0.859-0.491c-0.409-0.082-0.996-0.123-1.759-0.123H574.957z"
       id="path3082" /><path
       fill="#EC6109"
       d="M622.818,303.73c0-0.381,0.095-0.749,0.287-1.104c0.19-0.354,0.45-0.682,0.777-0.982   c0.327-0.299,0.681-0.544,1.063-0.736c0.381-0.19,0.763-0.286,1.146-0.286h24.462c0.327,0,0.654,0.082,0.981,0.245   c0.328,0.164,0.641,0.368,0.941,0.614c0.299,0.246,0.531,0.532,0.695,0.859c0.163,0.328,0.245,0.655,0.245,0.982v7.772   c0,0.219-0.028,0.437-0.082,0.654c-0.055,0.219-0.137,0.423-0.245,0.614c-0.109,0.192-0.245,0.341-0.409,0.45   c-0.163,0.11-0.354,0.164-0.572,0.164h-4.827c-0.164,0-0.342-0.041-0.531-0.123c-0.192-0.082-0.369-0.176-0.533-0.286   c-0.163-0.109-0.285-0.246-0.368-0.409c-0.081-0.164-0.122-0.327-0.122-0.491v-3.845c0-0.217-0.123-0.422-0.368-0.614   c-0.245-0.19-0.505-0.286-0.777-0.286h-13.254c-0.164,0-0.3,0.041-0.409,0.123c-0.11,0.082-0.205,0.178-0.287,0.286   c-0.082,0.11-0.151,0.246-0.205,0.409c-0.055,0.164-0.082,0.3-0.082,0.409v5.645c0,0.491,0.054,0.969,0.164,1.432   c0.108,0.464,0.272,0.928,0.491,1.391c0.217,0.464,0.463,0.928,0.736,1.391c0.272,0.464,0.544,0.928,0.818,1.391   c0.272,0.464,0.544,0.914,0.818,1.35c0.272,0.438,0.504,0.887,0.695,1.35c0.191,0.464,0.354,0.941,0.491,1.432   c0.135,0.491,0.205,0.982,0.205,1.473v14.236c0,0.219-0.069,0.45-0.205,0.695c-0.137,0.246-0.3,0.464-0.491,0.655   c-0.191,0.191-0.409,0.355-0.654,0.491c-0.246,0.137-0.505,0.205-0.777,0.205h-7.772c-0.273,0-0.532-0.082-0.777-0.246   c-0.246-0.164-0.464-0.354-0.655-0.573c-0.192-0.217-0.341-0.462-0.45-0.736c-0.11-0.272-0.164-0.544-0.164-0.818V303.73z"
       id="path3084" /><path
       fill="#EC6109"
       d="M657.508,316.902c0-0.436,0.109-0.845,0.327-1.227c0.217-0.381,0.504-0.722,0.859-1.022   c0.354-0.299,0.736-0.532,1.146-0.696c0.408-0.164,0.804-0.245,1.186-0.245h24.709c0.217,0,0.408-0.082,0.572-0.246   c0.163-0.164,0.245-0.354,0.245-0.573v-4.827c0-0.217-0.137-0.422-0.409-0.613c-0.273-0.19-0.519-0.287-0.736-0.287h-26.262   c-0.164,0-0.342-0.027-0.532-0.082c-0.192-0.054-0.368-0.15-0.532-0.287c-0.163-0.135-0.3-0.272-0.408-0.409   c-0.11-0.135-0.164-0.286-0.164-0.45v-3.845c0-0.164,0.054-0.34,0.164-0.532c0.108-0.19,0.245-0.354,0.408-0.491   c0.164-0.135,0.354-0.258,0.573-0.368c0.218-0.108,0.409-0.164,0.573-0.164h31.089c0.327,0,0.667,0.096,1.022,0.287   c0.354,0.191,0.682,0.437,0.981,0.736c0.3,0.3,0.532,0.627,0.695,0.981c0.165,0.355,0.246,0.695,0.246,1.023v29.126   c0,0.218,0.041,0.423,0.122,0.613c0.082,0.192,0.178,0.368,0.287,0.532c0.108,0.164,0.231,0.287,0.368,0.368   c0.135,0.082,0.313,0.123,0.531,0.123h2.046c0.164,0,0.34,0.041,0.532,0.123c0.19,0.082,0.367,0.192,0.531,0.327   c0.163,0.137,0.3,0.287,0.409,0.45c0.108,0.164,0.164,0.327,0.164,0.491v3.927c0,0.219-0.069,0.423-0.205,0.614   c-0.137,0.191-0.314,0.368-0.532,0.532s-0.45,0.286-0.695,0.368c-0.245,0.082-0.478,0.123-0.694,0.123h-35.018   c-0.382,0-0.791-0.095-1.227-0.286c-0.438-0.191-0.833-0.436-1.187-0.736c-0.355-0.299-0.643-0.655-0.859-1.064   c-0.218-0.409-0.327-0.804-0.327-1.186V316.902z M670.68,320.42c-0.327,0-0.613,0.123-0.859,0.368   c-0.244,0.246-0.368,0.532-0.368,0.859v11.208c0,0.327,0.124,0.613,0.368,0.859c0.246,0.246,0.532,0.368,0.859,0.368h14.563   c0.327,0,0.613-0.123,0.859-0.368c0.245-0.246,0.367-0.532,0.367-0.859v-11.208c0-0.328-0.122-0.614-0.367-0.859   c-0.246-0.245-0.532-0.368-0.859-0.368H670.68z"
       id="path3086" /><path
       fill="#EC6109"
       d="M701.196,303.158c0-0.927,0.204-1.595,0.614-2.004c0.408-0.409,1.186-0.614,2.331-0.614h30.927   c0.599,0,1.117,0.041,1.554,0.123c0.437,0.082,0.804,0.219,1.104,0.409c0.299,0.192,0.518,0.464,0.654,0.818   c0.136,0.355,0.231,0.777,0.287,1.268l0.082,36.735c0,0.327-0.041,0.586-0.123,0.777c-0.082,0.192-0.151,0.328-0.205,0.409   c-0.055,0.082-0.123,0.137-0.205,0.164c-0.081,0.028-0.15,0.041-0.203,0.041h-5.236c-0.11,0-0.246-0.027-0.41-0.082   c-0.163-0.054-0.314-0.149-0.449-0.286c-0.137-0.136-0.246-0.272-0.328-0.409c-0.081-0.135-0.122-0.286-0.122-0.45v-31.581   c0-0.327-0.015-0.585-0.041-0.777c-0.028-0.19-0.082-0.327-0.163-0.409c-0.082-0.082-0.192-0.136-0.328-0.164   c-0.137-0.027-0.314-0.041-0.531-0.041h-20.453c-0.328,0-0.561,0.014-0.695,0.041c-0.138,0.028-0.246,0.082-0.328,0.164   c-0.082,0.082-0.123,0.204-0.123,0.368c0,0.164,0,0.355,0,0.572v9.082c0,0.327,0.055,0.668,0.164,1.023   c0.108,0.355,0.272,0.695,0.491,1.022c0.217,0.327,0.45,0.642,0.695,0.941c0.245,0.3,0.503,0.601,0.777,0.9   c0.272,0.3,0.532,0.601,0.776,0.9c0.246,0.3,0.463,0.614,0.655,0.941c0.19,0.327,0.354,0.654,0.491,0.982   c0.135,0.327,0.204,0.683,0.204,1.063v14.972c0,0.164-0.041,0.314-0.122,0.45c-0.082,0.137-0.192,0.273-0.328,0.409   c-0.137,0.137-0.273,0.232-0.408,0.286c-0.138,0.055-0.287,0.082-0.451,0.082h-9.49c-0.109,0-0.232-0.027-0.367-0.082   c-0.138-0.054-0.261-0.135-0.369-0.245c-0.109-0.109-0.191-0.231-0.245-0.368c-0.056-0.136-0.082-0.287-0.082-0.45V303.158z"
       id="path3088" /><path
       fill="#EC6109"
       d="M746.031,303.239c0-0.327,0.094-0.654,0.286-0.981c0.19-0.327,0.436-0.614,0.736-0.859   c0.299-0.245,0.64-0.436,1.022-0.572c0.381-0.136,0.736-0.205,1.063-0.205h34.853c0.164,0,0.328,0.041,0.492,0.123   c0.163,0.082,0.298,0.205,0.408,0.368c0.109,0.164,0.191,0.327,0.246,0.491c0.053,0.164,0.081,0.328,0.081,0.491v3.6   c0,0.164-0.028,0.327-0.081,0.491c-0.055,0.164-0.123,0.314-0.205,0.45c-0.082,0.137-0.191,0.246-0.327,0.327   c-0.137,0.082-0.259,0.123-0.368,0.123h-4.908v20.699c0,0.219-0.041,0.438-0.124,0.655c-0.081,0.218-0.218,0.423-0.408,0.613   c-0.191,0.192-0.383,0.341-0.573,0.45c-0.191,0.11-0.396,0.164-0.613,0.164h-18.326v6.463h19.472c0.272,0,0.559,0.069,0.858,0.205   c0.3,0.137,0.559,0.327,0.777,0.573c0.218,0.245,0.396,0.519,0.532,0.818c0.136,0.301,0.204,0.587,0.204,0.859v18.326   c0,0.272-0.055,0.573-0.163,0.9c-0.109,0.328-0.274,0.614-0.491,0.859c-0.219,0.245-0.479,0.45-0.777,0.613   c-0.3,0.164-0.587,0.246-0.859,0.246h-30.106c-0.274,0-0.573-0.055-0.9-0.164c-0.328-0.11-0.628-0.273-0.9-0.491   c-0.273-0.219-0.491-0.464-0.654-0.736c-0.163-0.274-0.245-0.546-0.245-0.818v-18.817c0-0.327,0.094-0.626,0.286-0.9   c0.19-0.272,0.422-0.518,0.695-0.736c0.272-0.217,0.585-0.395,0.94-0.532c0.354-0.136,0.695-0.205,1.023-0.205h3.354v-6.463h-3.682   c-0.273,0-0.56-0.041-0.858-0.123c-0.301-0.082-0.587-0.217-0.859-0.409c-0.273-0.19-0.491-0.395-0.654-0.614   c-0.163-0.217-0.245-0.462-0.245-0.736V303.239z M754.785,307.167c-0.327,0-0.587,0.11-0.777,0.327   c-0.192,0.219-0.286,0.464-0.286,0.736v13.745c0,0.273,0.094,0.519,0.286,0.736c0.19,0.218,0.45,0.327,0.777,0.327h16.199   c0.272,0,0.504-0.109,0.695-0.327c0.19-0.217,0.287-0.463,0.287-0.736V308.23c0-0.272-0.097-0.518-0.287-0.736   c-0.191-0.217-0.423-0.327-0.695-0.327H754.785z M758.876,342.02c-0.219,0-0.424,0.068-0.614,0.205   c-0.191,0.135-0.285,0.313-0.285,0.532v9.899c0,0.217,0.094,0.395,0.285,0.532c0.19,0.136,0.396,0.205,0.614,0.205h14.071   c0.272,0,0.504-0.069,0.695-0.205c0.191-0.137,0.287-0.314,0.287-0.532v-9.899c0-0.219-0.096-0.396-0.287-0.532   c-0.191-0.137-0.423-0.205-0.695-0.205H758.876z"
       id="path3090" /><path
       fill="#EC6109"
       d="M790.293,303.158c0-0.327,0.094-0.655,0.285-0.982s0.451-0.613,0.778-0.859s0.667-0.436,1.022-0.573   c0.354-0.135,0.723-0.205,1.104-0.205h31.335c0.327,0,0.681,0.082,1.063,0.246c0.381,0.164,0.723,0.368,1.022,0.613   c0.299,0.246,0.559,0.546,0.777,0.9c0.217,0.355,0.327,0.723,0.327,1.104v15.954c0,0.273-0.082,0.532-0.245,0.777   c-0.164,0.245-0.368,0.478-0.613,0.695c-0.246,0.219-0.506,0.396-0.777,0.532c-0.274,0.137-0.547,0.205-0.818,0.205h-22.499   c-0.274,0-0.52,0.11-0.736,0.327c-0.219,0.219-0.327,0.464-0.327,0.736v11.208c0,0.164,0.067,0.341,0.204,0.532   c0.136,0.191,0.313,0.286,0.532,0.286h16.936c0.163,0,0.34-0.095,0.531-0.286c0.19-0.191,0.286-0.368,0.286-0.532v-4.09   c0-0.217,0.109-0.436,0.327-0.655c0.218-0.217,0.437-0.327,0.655-0.327h5.317c0.164,0,0.313,0.028,0.45,0.082   c0.136,0.055,0.258,0.137,0.368,0.245c0.109,0.11,0.205,0.233,0.286,0.368c0.082,0.137,0.123,0.287,0.123,0.45v9   c0,0.273-0.082,0.546-0.245,0.818c-0.164,0.274-0.355,0.532-0.573,0.777c-0.218,0.246-0.464,0.438-0.735,0.573   c-0.274,0.137-0.547,0.205-0.819,0.205h-32.152c-0.382,0-0.765-0.082-1.146-0.246c-0.383-0.164-0.724-0.368-1.023-0.613   c-0.3-0.246-0.545-0.545-0.736-0.9c-0.191-0.354-0.285-0.696-0.285-1.023V303.158z M802.729,306.921   c-0.219,0-0.396,0.082-0.532,0.245c-0.137,0.164-0.204,0.327-0.204,0.491v6.791c0,0.218,0.067,0.396,0.204,0.532   c0.136,0.137,0.313,0.205,0.532,0.205h16.854c0.164,0,0.327-0.068,0.49-0.205c0.164-0.136,0.246-0.313,0.246-0.532v-6.791   c0-0.164-0.082-0.328-0.246-0.491c-0.163-0.164-0.326-0.245-0.49-0.245H802.729z"
       id="path3092" /><path
       fill="#EC6109"
       d="M834.799,285.24c0-0.381,0.096-0.763,0.287-1.146c0.19-0.381,0.436-0.722,0.736-1.022   c0.299-0.299,0.641-0.544,1.022-0.736c0.381-0.19,0.763-0.286,1.146-0.286h43.443c0.381,0,0.764,0.082,1.146,0.245   c0.381,0.164,0.722,0.382,1.022,0.655c0.299,0.273,0.545,0.601,0.736,0.981c0.19,0.382,0.286,0.736,0.286,1.064v26.999   c0,0.382-0.096,0.777-0.286,1.187c-0.191,0.409-0.438,0.764-0.736,1.063c-0.301,0.3-0.642,0.546-1.022,0.736   c-0.382,0.191-0.765,0.286-1.146,0.286h-33.217c-0.164,0-0.342,0.041-0.531,0.123c-0.192,0.082-0.355,0.204-0.491,0.368   c-0.137,0.164-0.246,0.327-0.327,0.491c-0.082,0.164-0.123,0.327-0.123,0.491v21.926c0,0.273-0.068,0.56-0.205,0.859   c-0.137,0.3-0.3,0.586-0.49,0.859c-0.192,0.273-0.409,0.491-0.654,0.654c-0.246,0.164-0.506,0.246-0.777,0.246h-7.199   c-0.328,0-0.655-0.095-0.982-0.286c-0.327-0.191-0.613-0.422-0.859-0.696c-0.245-0.272-0.437-0.573-0.572-0.9   c-0.137-0.327-0.205-0.654-0.205-0.981V285.24z M843.717,288.758c-0.109,0-0.245,0.041-0.408,0.123   c-0.164,0.082-0.301,0.164-0.41,0.246c-0.109,0.082-0.204,0.192-0.285,0.327c-0.082,0.137-0.124,0.287-0.124,0.45v18.081   c0,0.273,0.124,0.491,0.368,0.654c0.246,0.164,0.504,0.246,0.777,0.246h32.809c0.217,0,0.436-0.109,0.654-0.327   c0.217-0.217,0.327-0.436,0.327-0.655v-17.999c0-0.164-0.028-0.299-0.082-0.409c-0.055-0.108-0.137-0.217-0.245-0.327   c-0.11-0.109-0.233-0.205-0.368-0.287c-0.138-0.082-0.286-0.123-0.45-0.123H843.717z"
       id="path3094" /><path
       fill="#EC6109"
       d="M894.852,295.058c-0.602,0-1.174-0.123-1.719-0.368s-1.01-0.559-1.391-0.941   c-0.382-0.381-0.695-0.845-0.94-1.391c-0.245-0.545-0.368-1.091-0.368-1.637c0-0.599,0.123-1.172,0.368-1.718   c0.245-0.545,0.559-1.009,0.94-1.391c0.381-0.381,0.846-0.695,1.391-0.941c0.545-0.245,1.117-0.368,1.719-0.368   c0.545,0,1.09,0.123,1.637,0.368c0.544,0.246,1.008,0.56,1.39,0.941c0.382,0.382,0.696,0.846,0.941,1.391   c0.245,0.546,0.368,1.119,0.368,1.718c0,0.546-0.123,1.092-0.368,1.637c-0.245,0.545-0.56,1.01-0.941,1.391   c-0.382,0.382-0.846,0.695-1.39,0.941C895.941,294.936,895.396,295.058,894.852,295.058z M892.479,300.622h4.826   c0.164,0,0.327,0.041,0.491,0.123c0.163,0.082,0.299,0.192,0.409,0.327c0.108,0.137,0.204,0.287,0.286,0.45   s0.122,0.327,0.122,0.491v11.536c0,0.273,0.068,0.613,0.205,1.022c0.136,0.409,0.313,0.846,0.532,1.309   c0.217,0.464,0.463,0.955,0.736,1.473c0.271,0.519,0.559,1.022,0.859,1.514c0.299,0.491,0.6,0.981,0.899,1.473   c0.299,0.491,0.559,0.955,0.777,1.391c0.217,0.438,0.396,0.832,0.532,1.187c0.135,0.355,0.204,0.642,0.204,0.859v15.626   c0,0.219-0.056,0.438-0.163,0.655c-0.111,0.218-0.246,0.423-0.41,0.613c-0.163,0.192-0.341,0.341-0.531,0.45   c-0.191,0.11-0.396,0.164-0.613,0.164h-8.019c-0.218,0-0.478-0.041-0.776-0.123c-0.301-0.082-0.561-0.217-0.778-0.409   c-0.218-0.19-0.409-0.395-0.572-0.614c-0.163-0.217-0.245-0.463-0.245-0.736v-37.307c0-0.164,0.026-0.328,0.082-0.491   c0.053-0.164,0.148-0.327,0.285-0.491s0.273-0.286,0.409-0.368S892.315,300.622,892.479,300.622z"
       id="path3096" /></g><path
     fill="#C90012"
     d="M588.007,464.085L588.007,464.085L588.007,464.085z"
     id="path3098" /><path
     fill="#C90012"
     d="M588.007,438.662L588.007,438.662L588.007,438.662z"
     id="path3100" /><path
     fill="#C90012"
     d="M588.007,413.231L588.007,413.231L588.007,413.231z"
     id="path3102" /><path
     fill="#C90012"
     d="M588.007,425.944L588.007,425.944L588.007,425.944z"
     id="path3104" /><path
     fill="#C90012"
     d="M588.007,476.798L588.007,476.798L588.007,476.798z"
     id="path3106" /><path
     fill="#C90012"
     d="M588.007,451.369L588.007,451.369L588.007,451.369z"
     id="path3108" /><path
     fill="#C90012"
     d="M588.007,400.514L588.007,400.514L588.007,400.514z"
     id="path3110" /><path
     fill="#004E73"
     d="M588.007,403.921c0-1.874-1.533-3.407-3.406-3.407h-107.62c-1.875,0-4.492,1.084-5.817,2.409l-7.897,7.896  c-1.326,1.325-2.409,3.942-2.409,5.816v69.466c0,1.874,1.533,3.407,3.406,3.407h107.62c1.874,0,4.493-1.084,5.817-2.409l7.896-7.894  c1.325-1.325,2.409-3.942,2.409-5.817L588.007,403.921z"
     id="path3112" /><path
     opacity="0.2"
     enable-background="new    "
     d="M572.882,448.961l-7.892-7.892c-1.325-1.325-3.942-2.409-5.816-2.409h-5.904  c-1.875,0-3.408,0-3.408,0s1.083-1.084,2.41-2.409l20.611-20.61c1.326-1.324,0.876-2.409-0.997-2.409h-31.329  c-1.874,0-4.491,1.085-5.816,2.409l-71.384,71.377c-0.56,0.559-1.079,1.077-1.494,1.492c0.617,0.617,1.468,1,2.403,1  c0.002,0,0.004,0,0.005,0h30.659h51.528c1.874,0,3.411-0.004,3.415-0.008c0.004-0.004,1.092-1.092,2.417-2.417l20.595-20.591  c1.326-1.324,2.409-3.942,2.409-5.816v-5.9C575.292,452.902,574.208,450.284,572.882,448.961z"
     id="path3114" /><path
     fill="#FFFFFF"
     d="M540.554,451.372c-1.874,0-4.492-1.085-5.816-2.41l-7.886-7.889c-1.326-1.325-2.41-3.943-2.413-5.817  l-0.004-5.903c-0.002-1.874,1.082-4.492,2.407-5.817l7.896-7.895c1.326-1.324,3.942-2.409,5.816-2.409h31.33  c1.874,0,2.323,1.085,0.998,2.409l-7.896,7.895c-1.325,1.325-3.941,2.409-5.817,2.409h-18.614c-1.875,0-3.408,1.533-3.408,3.407  v5.903c0,1.874,1.533,3.407,3.407,3.407l18.619-0.002c1.874-0.001,4.492,1.083,5.817,2.408l7.892,7.892  c1.325,1.324,2.409,3.942,2.409,5.817v5.899c0,1.874-1.083,4.492-2.409,5.816l-7.896,7.896c-1.325,1.324-3.942,2.409-5.817,2.409  h-18.615c-1.874,0-4.491-1.085-5.816-2.409l-7.896-7.896c-1.325-1.324-0.876-2.409,0.998-2.409h31.329  c1.875,0,3.408-1.533,3.408-3.407v-5.899c0-1.875,0-3.408,0.001-3.408s-1.532,0-3.406,0L540.554,451.372z"
     id="path3116" /><g
     opacity="0.2"
     id="g3118"><path
       d="M460.86,442.239c0-1.874,0-3.446,0-3.494s1.083-1.172,2.409-2.497l20.608-20.607c1.326-1.325,3.943-2.409,5.817-2.409   h31.332c1.873,0,2.323,1.084,0.998,2.409l-20.612,20.607c-1.325,1.325-2.409,2.408-2.409,2.408s1.533,0.001,3.408,0.003   l5.898,0.001c1.873,0.002,3.297,1.532,3.165,3.401l-0.342,4.782c-0.133,1.869-0.523,3.681-0.869,4.025   c-0.345,0.345-1.71,1.712-3.036,3.036l-7.729,7.729c-1.325,1.323-2.419,2.418-2.429,2.428c-0.011,0.011,1.512,0.021,3.386,0.02   h5.514c1.874-0.001,4.535,1.037,5.915,2.307l8.231,7.575c1.379,1.268,2.509,2.338,2.471,2.376   c-0.038,0.039-1.155,1.154-2.481,2.479l-10.682,10.689l-45.154,0.001c-1.873,0-3.406-1.532-3.406-3.408L460.86,442.239z"
       id="path3120" /></g><path
     fill="#FFFFFF"
     d="M489.694,464.085c-1.874,0-3.407-1.533-3.407-3.407v-5.9c0-1.875,1.533-3.407,3.407-3.407h18.616  c1.873,0,3.406-1.534,3.406-3.407v-5.892c0-1.874-1.533-3.407-3.406-3.407h-18.616c-1.874,0-3.407-1.533-3.407-3.408v-5.902  c0-1.875,1.533-3.407,3.407-3.407h18.616c1.873,0,4.49-1.084,5.816-2.409l7.898-7.896c1.325-1.325,0.875-2.409-0.998-2.409h-31.332  c-1.874,0-4.492,1.084-5.817,2.41l-7.894,7.894c-1.325,1.325-2.41,3.942-2.41,5.816v31.325c0,1.874,1.085,4.492,2.41,5.816  l7.894,7.896c1.326,1.324,3.943,2.409,5.817,2.409h31.33c1.875,0,2.324-1.084,0.998-2.409l-7.896-7.896  c-1.325-1.325-3.943-2.411-5.816-2.411L489.694,464.085z"
     id="path3122" /><g
     id="g3124"><path
       fill="#2D2D2D"
       d="M626.985,428.646c-0.498,1.165-1.181,2.183-2.05,3.051c-0.869,0.869-1.885,1.551-3.051,2.049   c-1.165,0.498-2.404,0.746-3.716,0.746h-2.606c-1.314,0-2.554-0.248-3.718-0.746c-1.166-0.498-2.183-1.18-3.05-2.049   c-0.869-0.868-1.552-1.886-2.05-3.051c-0.499-1.165-0.747-2.404-0.747-3.717v-14.681c0-1.313,0.249-2.554,0.747-3.718   c0.497-1.165,1.181-2.182,2.05-3.05c0.867-0.87,1.885-1.552,3.05-2.05c1.165-0.497,2.404-0.747,3.718-0.747h2.606   c1.313,0,2.552,0.25,3.716,0.747c1.165,0.498,2.182,1.181,3.051,2.05c0.869,0.868,1.553,1.885,2.05,3.05   c0.497,1.164,0.747,2.404,0.747,3.718v7.657h-17.826v7.244c0,0.785,0.148,1.521,0.445,2.21c0.295,0.688,0.698,1.286,1.207,1.795   c0.51,0.508,1.107,0.911,1.796,1.207c0.688,0.296,1.424,0.444,2.208,0.444h2.606c0.784,0,1.519-0.147,2.208-0.444   c0.688-0.296,1.287-0.699,1.796-1.207c0.508-0.509,0.911-1.107,1.208-1.795c0.296-0.689,0.445-1.425,0.445-2.21v-2.159l3.908,0.635   v1.304C627.731,426.242,627.484,427.481,626.985,428.646z M623.824,410.026c0-0.783-0.149-1.52-0.445-2.209   c-0.297-0.688-0.699-1.286-1.208-1.795c-0.508-0.508-1.107-0.911-1.795-1.208c-0.689-0.296-1.425-0.444-2.208-0.444h-2.606   c-0.785,0-1.52,0.148-2.209,0.444c-0.688,0.298-1.286,0.7-1.795,1.208c-0.508,0.509-0.911,1.107-1.207,1.795   c-0.297,0.689-0.445,1.426-0.445,2.209v4.829h13.918V410.026L623.824,410.026z"
       id="path3126" /><path
       fill="#2D2D2D"
       d="M669.897,433.857v-23.831c0-0.783-0.147-1.52-0.445-2.209c-0.297-0.688-0.698-1.286-1.208-1.795   c-0.506-0.508-1.106-0.911-1.795-1.208c-0.689-0.296-1.424-0.444-2.207-0.444h-1.938c-0.784,0-1.521,0.148-2.209,0.444   c-0.688,0.298-1.291,0.7-1.81,1.208c-0.521,0.509-0.928,1.107-1.225,1.795c-0.296,0.689-0.443,1.426-0.443,2.209v23.831h-3.878   v-23.831c0-0.783-0.148-1.52-0.444-2.209c-0.298-0.688-0.705-1.286-1.224-1.795c-0.519-0.508-1.122-0.911-1.812-1.208   c-0.688-0.296-1.425-0.444-2.208-0.444h-1.938c-0.784,0-1.521,0.148-2.208,0.444c-0.689,0.298-1.287,0.7-1.796,1.208   c-0.508,0.509-0.911,1.107-1.207,1.795c-0.297,0.689-0.446,1.426-0.446,2.209v23.831h-3.907V401.32h1.302l2.129,3.306   c0.889-1.209,2.005-2.166,3.352-2.876c1.345-0.71,2.813-1.065,4.4-1.065h0.317c1.844,0,3.506,0.455,4.989,1.367   c1.482,0.91,2.626,2.117,3.432,3.622c0.402-0.742,0.901-1.419,1.493-2.033c0.594-0.615,1.251-1.139,1.97-1.572   c0.721-0.436,1.506-0.774,2.354-1.019c0.846-0.243,1.725-0.365,2.636-0.365h0.319c1.312,0,2.551,0.25,3.717,0.747   c1.164,0.498,2.183,1.181,3.051,2.05c0.868,0.868,1.552,1.885,2.051,3.05c0.495,1.165,0.746,2.404,0.746,3.719v23.607h-3.909l0,0   H669.897z"
       id="path3128" /><path
       fill="#2D2D2D"
       d="M702.054,433.857l-2.161-3.305c-0.89,1.208-2.002,2.166-3.336,2.876s-2.796,1.063-4.385,1.063h-0.984   c-1.315,0-2.554-0.248-3.719-0.746s-2.182-1.18-3.051-2.051c-0.868-0.867-1.552-1.884-2.049-3.049   c-0.498-1.165-0.747-2.404-0.747-3.718V401.32h3.908v23.83c0,0.785,0.147,1.521,0.444,2.21c0.297,0.688,0.699,1.286,1.208,1.795   c0.507,0.508,1.107,0.911,1.795,1.207s1.425,0.444,2.21,0.444h2.605c0.781,0,1.52-0.147,2.206-0.444   c0.688-0.296,1.288-0.699,1.795-1.207c0.509-0.509,0.912-1.107,1.208-1.795c0.297-0.689,0.445-1.425,0.445-2.21v-23.83h3.908   v32.537H702.054z"
       id="path3130" /><path
       fill="#2D2D2D"
       d="M712.477,433.857v-45.564h3.907v45.564H712.477z"
       id="path3132" /><path
       fill="#2D2D2D"
       d="M745.936,433.857l-2.162-3.24c-0.889,1.165-2,2.102-3.337,2.812c-1.333,0.71-2.796,1.063-4.382,1.063   h-0.987c-1.313,0-2.553-0.248-3.717-0.746c-1.167-0.498-2.183-1.18-3.05-2.051c-0.871-0.867-1.553-1.884-2.051-3.049   c-0.499-1.165-0.746-2.404-0.746-3.718v-0.318c0-1.313,0.247-2.552,0.746-3.718c0.497-1.165,1.18-2.182,2.051-3.05   c0.867-0.868,1.883-1.553,3.05-2.05c1.164-0.498,2.402-0.746,3.717-0.746h8.263v-5.021c0-0.783-0.148-1.52-0.445-2.209   c-0.297-0.688-0.698-1.286-1.208-1.795c-0.507-0.508-1.107-0.911-1.795-1.208c-0.689-0.296-1.426-0.444-2.209-0.444h-2.287   c-0.784,0-1.521,0.148-2.208,0.444c-0.689,0.298-1.286,0.7-1.797,1.208c-0.506,0.509-0.91,1.107-1.206,1.795   c-0.297,0.689-0.444,1.426-0.444,2.209v1.176l-3.908-0.636v-0.317c0-1.313,0.249-2.554,0.747-3.718   c0.497-1.166,1.182-2.182,2.05-3.05c0.867-0.87,1.885-1.552,3.05-2.051c1.164-0.496,2.404-0.747,3.717-0.747h2.288   c1.313,0,2.553,0.251,3.717,0.747c1.166,0.499,2.183,1.181,3.053,2.051c0.867,0.868,1.55,1.884,2.049,3.05   c0.497,1.164,0.746,2.404,0.746,3.718v23.608H745.936L745.936,433.857z M743.33,418.097h-8.263c-0.785,0-1.521,0.149-2.209,0.445   c-0.688,0.297-1.286,0.704-1.795,1.223c-0.509,0.521-0.911,1.124-1.207,1.812c-0.298,0.688-0.445,1.426-0.445,2.209v1.365   c0,0.785,0.147,1.521,0.445,2.21c0.297,0.688,0.698,1.286,1.207,1.795c0.509,0.508,1.106,0.911,1.795,1.207   s1.425,0.444,2.209,0.444h2.605c0.783,0,1.52-0.147,2.208-0.444c0.688-0.296,1.288-0.699,1.795-1.207   c0.51-0.509,0.912-1.107,1.209-1.795c0.297-0.689,0.444-1.425,0.444-2.21L743.33,418.097L743.33,418.097z"
       id="path3134" /><path
       fill="#2D2D2D"
       d="M766.906,433.857c-1.186,0-2.303-0.222-3.353-0.666c-1.048-0.445-1.96-1.062-2.733-1.844   c-0.773-0.785-1.387-1.695-1.843-2.733c-0.455-1.038-0.683-2.149-0.683-3.336v-20.241h-5.848v-3.717h5.848v-7.816l3.907-0.635   v8.451h8.263v3.717h-8.262v20.432c0,0.657,0.122,1.267,0.365,1.826c0.242,0.563,0.576,1.055,1,1.478   c0.425,0.425,0.923,0.759,1.494,1.001c0.572,0.243,1.186,0.366,1.844,0.366h3.559v3.717L766.906,433.857L766.906,433.857z"
       id="path3136" /><path
       fill="#2D2D2D"
       d="M778.631,393.504v-5.211h4.544v5.211H778.631z M778.948,433.857V401.32h3.908v32.537H778.948z"
       id="path3138" /><path
       fill="#2D2D2D"
       d="M812.965,428.646c-0.498,1.165-1.183,2.183-2.05,3.051c-0.87,0.869-1.886,1.551-3.052,2.049   c-1.164,0.498-2.403,0.746-3.716,0.746h-2.606c-1.313,0-2.552-0.248-3.717-0.746c-1.167-0.498-2.184-1.18-3.051-2.049   c-0.87-0.868-1.552-1.886-2.05-3.051c-0.499-1.165-0.747-2.404-0.747-3.717v-14.681c0-1.313,0.248-2.554,0.747-3.718   c0.497-1.165,1.18-2.182,2.05-3.05c0.867-0.87,1.885-1.552,3.051-2.05c1.165-0.497,2.403-0.747,3.717-0.747h2.606   c1.313,0,2.552,0.25,3.716,0.747c1.166,0.498,2.183,1.181,3.052,2.05c0.867,0.868,1.552,1.885,2.05,3.05   c0.497,1.164,0.746,2.404,0.746,3.718v14.681C813.71,426.242,813.462,427.481,812.965,428.646z M809.803,410.026   c0-0.783-0.147-1.52-0.445-2.209c-0.297-0.688-0.697-1.286-1.207-1.795c-0.507-0.508-1.107-0.911-1.795-1.208   c-0.689-0.296-1.426-0.444-2.209-0.444h-2.605c-0.785,0-1.52,0.148-2.208,0.444c-0.688,0.298-1.286,0.7-1.796,1.208   c-0.509,0.509-0.91,1.107-1.207,1.795c-0.298,0.689-0.444,1.426-0.444,2.209v15.124c0,0.784,0.146,1.521,0.444,2.21   c0.297,0.687,0.698,1.286,1.207,1.795c0.51,0.507,1.106,0.91,1.796,1.207c0.688,0.296,1.424,0.444,2.208,0.444h2.605   c0.783,0,1.52-0.148,2.209-0.444c0.688-0.297,1.287-0.7,1.795-1.207c0.51-0.509,0.911-1.108,1.207-1.795   c0.298-0.689,0.445-1.426,0.445-2.21V410.026z"
       id="path3140" /><path
       fill="#2D2D2D"
       d="M839.354,433.857v-23.831c0-0.783-0.148-1.52-0.445-2.209c-0.296-0.688-0.699-1.286-1.207-1.795   c-0.51-0.508-1.107-0.911-1.796-1.208c-0.688-0.296-1.424-0.444-2.207-0.444h-2.604c-0.785,0-1.522,0.148-2.21,0.444   c-0.688,0.298-1.286,0.7-1.796,1.208c-0.508,0.509-0.91,1.107-1.207,1.795c-0.297,0.689-0.444,1.426-0.444,2.209v23.831h-3.907   V401.32h1.302l2.128,3.306c0.891-1.209,2.008-2.166,3.354-2.876c1.344-0.71,2.812-1.065,4.4-1.065h0.985   c1.313,0,2.552,0.25,3.718,0.747c1.165,0.498,2.182,1.181,3.05,2.05c0.868,0.868,1.553,1.885,2.05,3.05   c0.498,1.164,0.747,2.404,0.747,3.718v23.608H839.354L839.354,433.857z"
       id="path3142" /><path
       fill="#2D2D2D"
       d="M628.367,480.698c0,1.312-0.265,2.515-0.793,3.606c-0.53,1.092-1.25,2.028-2.162,2.813   c-0.911,0.785-1.965,1.392-3.162,1.826c-1.197,0.434-2.452,0.65-3.765,0.65h-2.605c-1.314,0-2.569-0.25-3.766-0.746   c-1.197-0.499-2.246-1.179-3.146-2.05c-0.901-0.866-1.62-1.884-2.16-3.05c-0.54-1.166-0.811-2.404-0.811-3.717v-1.303l3.909-0.637   v2.16c0,0.783,0.163,1.521,0.492,2.209c0.328,0.688,0.768,1.287,1.319,1.796c0.551,0.507,1.186,0.911,1.907,1.207   c0.72,0.296,1.473,0.443,2.256,0.443h2.604c0.784,0,1.536-0.114,2.256-0.347c0.72-0.236,1.361-0.568,1.923-1.004   c0.561-0.434,1.006-0.958,1.335-1.572c0.327-0.612,0.491-1.312,0.491-2.098c0-1.164-0.253-2.117-0.762-2.859   c-0.509-0.742-1.181-1.361-2.017-1.858c-0.836-0.499-1.79-0.909-2.859-1.237c-1.071-0.329-2.167-0.659-3.29-0.987   c-1.124-0.328-2.219-0.704-3.29-1.126c-1.069-0.426-2.022-0.981-2.859-1.67c-0.837-0.688-1.508-1.552-2.017-2.589   c-0.51-1.039-0.763-2.329-0.763-3.878c0-1.312,0.253-2.513,0.763-3.604c0.508-1.093,1.196-2.029,2.064-2.813   c0.869-0.783,1.88-1.392,3.035-1.826c1.154-0.436,2.388-0.652,3.701-0.652h2.288c1.313,0,2.553,0.251,3.718,0.746   c1.165,0.5,2.183,1.182,3.051,2.05c0.867,0.869,1.55,1.886,2.049,3.052c0.497,1.165,0.747,2.405,0.747,3.717v0.127l-3.909,0.637   v-0.986c0-0.782-0.147-1.521-0.445-2.208c-0.297-0.687-0.698-1.286-1.207-1.794s-1.107-0.912-1.796-1.209   c-0.688-0.295-1.425-0.444-2.208-0.444h-2.289c-0.783,0-1.52,0.117-2.208,0.349c-0.688,0.235-1.287,0.569-1.795,1.001   c-0.508,0.437-0.911,0.96-1.208,1.572c-0.297,0.616-0.445,1.315-0.445,2.1c0,1.122,0.254,2.038,0.763,2.747   c0.508,0.711,1.181,1.311,2.018,1.796c0.836,0.487,1.79,0.895,2.86,1.224c1.069,0.328,2.16,0.666,3.272,1.016   c1.113,0.35,2.204,0.747,3.273,1.193c1.069,0.443,2.023,1.016,2.859,1.713c0.838,0.7,1.51,1.574,2.019,2.624   C628.113,477.854,628.367,479.15,628.367,480.698z"
       id="path3144" /><path
       fill="#2D2D2D"
       d="M647.718,488.96c-1.186,0-2.303-0.224-3.352-0.667c-1.05-0.446-1.961-1.062-2.733-1.844   c-0.772-0.784-1.387-1.694-1.842-2.731c-0.455-1.039-0.684-2.151-0.684-3.337v-20.243h-5.846v-3.716h5.846v-7.815l3.908-0.636   v8.452h8.263v3.716h-8.263v20.433c0,0.657,0.121,1.266,0.366,1.826c0.243,0.562,0.576,1.055,1,1.477   c0.424,0.426,0.921,0.759,1.493,1.003c0.573,0.242,1.187,0.365,1.843,0.365h3.559v3.718H647.718L647.718,488.96z"
       id="path3146" /><path
       fill="#2D2D2D"
       d="M678.89,488.96l-2.159-3.241c-0.891,1.166-2.003,2.102-3.338,2.812c-1.335,0.709-2.795,1.063-4.386,1.063   h-0.983c-1.314,0-2.555-0.249-3.719-0.746c-1.166-0.498-2.182-1.179-3.051-2.05c-0.869-0.866-1.552-1.883-2.049-3.05   c-0.499-1.164-0.746-2.404-0.746-3.717v-0.319c0-1.312,0.247-2.553,0.746-3.716c0.496-1.165,1.18-2.182,2.049-3.05   c0.869-0.869,1.886-1.553,3.051-2.051c1.164-0.497,2.404-0.746,3.719-0.746h8.262v-5.022c0-0.781-0.149-1.519-0.445-2.206   c-0.297-0.688-0.699-1.286-1.208-1.796c-0.509-0.507-1.106-0.911-1.795-1.207c-0.688-0.295-1.425-0.446-2.208-0.446h-2.288   c-0.784,0-1.521,0.151-2.209,0.446c-0.688,0.296-1.287,0.7-1.795,1.207c-0.509,0.51-0.911,1.108-1.207,1.796   c-0.298,0.688-0.444,1.425-0.444,2.206v1.177l-3.909-0.636v-0.317c0-1.313,0.249-2.553,0.746-3.716   c0.499-1.168,1.182-2.184,2.05-3.053c0.869-0.868,1.886-1.55,3.051-2.051c1.165-0.494,2.404-0.746,3.718-0.746h2.288   c1.313,0,2.553,0.252,3.719,0.746c1.163,0.501,2.18,1.183,3.049,2.051c0.868,0.869,1.552,1.886,2.05,3.053   c0.498,1.163,0.747,2.403,0.747,3.716v23.609H678.89L678.89,488.96z M676.285,473.199h-8.262c-0.785,0-1.521,0.147-2.209,0.443   c-0.689,0.299-1.287,0.704-1.796,1.223c-0.509,0.521-0.911,1.125-1.207,1.813c-0.298,0.688-0.444,1.425-0.444,2.21v1.364   c0,0.783,0.146,1.521,0.444,2.208c0.296,0.688,0.698,1.287,1.207,1.796c0.509,0.507,1.106,0.912,1.796,1.207   c0.688,0.297,1.424,0.444,2.209,0.444h2.604c0.783,0,1.52-0.147,2.208-0.444c0.688-0.295,1.286-0.699,1.796-1.207   c0.507-0.509,0.909-1.107,1.207-1.796c0.296-0.688,0.444-1.425,0.444-2.208L676.285,473.199L676.285,473.199z"
       id="path3148" /><path
       fill="#2D2D2D"
       d="M699.86,488.96c-1.186,0-2.304-0.224-3.351-0.667c-1.05-0.446-1.961-1.062-2.732-1.844   c-0.775-0.784-1.388-1.694-1.844-2.731c-0.455-1.039-0.684-2.151-0.684-3.337v-20.243h-5.847v-3.716h5.847v-7.815l3.907-0.636   v8.452h8.262v3.716h-8.262v20.433c0,0.657,0.122,1.266,0.365,1.826c0.244,0.562,0.577,1.055,1.001,1.477   c0.424,0.426,0.922,0.759,1.494,1.003c0.571,0.242,1.186,0.365,1.843,0.365h3.558v3.718H699.86L699.86,488.96z"
       id="path3150" /><path
       fill="#2D2D2D"
       d="M711.586,448.606v-5.211h4.544v5.211H711.586z M711.904,488.96v-32.538h3.907v32.538H711.904   L711.904,488.96z"
       id="path3152" /><path
       fill="#2D2D2D"
       d="M745.919,483.748c-0.497,1.167-1.181,2.184-2.05,3.05c-0.868,0.871-1.885,1.552-3.05,2.05   c-1.165,0.497-2.403,0.746-3.717,0.746h-2.604c-1.315,0-2.555-0.249-3.719-0.746c-1.165-0.498-2.182-1.179-3.051-2.05   c-0.868-0.866-1.552-1.883-2.049-3.05c-0.498-1.164-0.747-2.404-0.747-3.717v-14.681c0-1.313,0.249-2.553,0.747-3.716   c0.497-1.168,1.181-2.184,2.049-3.053c0.869-0.868,1.886-1.55,3.051-2.051c1.164-0.494,2.403-0.746,3.719-0.746h2.604   c1.313,0,2.552,0.252,3.717,0.746c1.165,0.501,2.182,1.183,3.05,2.051c0.869,0.869,1.553,1.886,2.05,3.053   c0.499,1.163,0.746,2.403,0.746,3.716v14.681C746.665,481.344,746.418,482.584,745.919,483.748z M742.757,465.127   c0-0.781-0.147-1.519-0.444-2.206s-0.699-1.286-1.207-1.796c-0.509-0.507-1.107-0.911-1.795-1.207   c-0.688-0.295-1.426-0.446-2.208-0.446h-2.604c-0.785,0-1.522,0.151-2.21,0.446c-0.688,0.296-1.286,0.7-1.796,1.207   c-0.507,0.51-0.911,1.108-1.207,1.796c-0.297,0.688-0.444,1.425-0.444,2.206v15.125c0,0.784,0.147,1.521,0.444,2.209   c0.296,0.689,0.699,1.287,1.207,1.796c0.51,0.507,1.107,0.911,1.796,1.208c0.688,0.296,1.425,0.443,2.21,0.443h2.604   c0.782,0,1.52-0.147,2.208-0.443c0.688-0.297,1.286-0.7,1.795-1.208c0.508-0.509,0.91-1.106,1.207-1.796   c0.297-0.688,0.444-1.426,0.444-2.209V465.127z"
       id="path3154" /><path
       fill="#2D2D2D"
       d="M772.309,488.96v-23.833c0-0.781-0.147-1.519-0.444-2.206c-0.299-0.688-0.698-1.286-1.208-1.796   c-0.507-0.507-1.107-0.911-1.796-1.207c-0.688-0.295-1.425-0.446-2.208-0.446h-2.605c-0.784,0-1.52,0.151-2.208,0.446   c-0.688,0.296-1.286,0.7-1.795,1.207c-0.509,0.51-0.912,1.108-1.208,1.796c-0.297,0.688-0.445,1.425-0.445,2.206v23.833h-3.907   v-32.538h1.302l2.129,3.306c0.89-1.209,2.008-2.167,3.354-2.876c1.345-0.709,2.813-1.066,4.399-1.066h0.985   c1.313,0,2.553,0.251,3.718,0.746c1.165,0.5,2.182,1.182,3.052,2.05c0.867,0.869,1.551,1.886,2.048,3.054   c0.498,1.163,0.747,2.403,0.747,3.715v23.61H772.309L772.309,488.96z"
       id="path3156" /></g><g
     id="g3184"
     style="filter:url(#filter3204)"
     transform="translate(1.7297286,0.8108129)"><path
       style="fill:#d0d0cf"
       d="m 931.59685,361.10702 c -2.64836,-2.9264 -0.0658,-8.1525 5.54616,-11.22307 3.26465,-1.78627 5.04067,-3.73345 7.08397,-7.76669 1.49984,-2.9605 2.48578,-5.773 2.19098,-6.25 -0.95247,-1.54114 -8.70403,-0.9746 -17.43263,1.2741 -10.12389,2.60816 -13.27537,2.13223 -15.59593,-2.35524 -2.23484,-4.3217 -0.69599,-8.43457 6.09353,-16.28612 9.31262,-10.76932 15.23343,-21.04975 21.53663,-37.3945 3.08004,-7.98681 3.39293,-8.39606 7.84422,-10.26006 2.54992,-1.06779 7.19637,-3.11451 10.32545,-4.54827 5.43945,-2.49237 5.80167,-2.53315 8.25,-0.92894 1.59711,1.04646 2.56077,2.60209 2.56077,4.13382 0,5.32833 -4.74798,16.38452 -12.6147,29.37471 -7.30108,12.05616 -8.01943,13.66109 -6.24496,13.95232 1.10281,0.181 2.59117,0.10419 3.30747,-0.17068 0.71629,-0.27487 5.44695,-10.32295 10.51257,-22.32908 10.8447,-25.7032 13.34081,-31.22592 15.1757,-33.57672 1.44711,-1.85398 11.13551,-4.7741 15.66271,-4.7208 2.8401,0.0334 6.20121,2.01502 6.20121,3.656 0,0.53202 -1.7333,4.98241 -3.85168,9.88975 -2.11842,4.90735 -7.12086,17.63848 -11.11653,28.29141 -5.81104,15.49291 -6.99139,19.53893 -5.89832,20.2183 1.80931,1.12454 8.38861,0.0269 13.36653,-2.22987 5.3829,-2.44042 6.9165,-2.31622 8.5256,0.69048 1.1206,2.09376 1.1408,3.38595 0.1137,7.25 -2.4111,9.0707 -13.02739,16.6472 -25.21673,17.99637 -5.69352,0.63019 -6.47505,0.98692 -7.29877,3.33152 -0.70637,2.01057 -0.41893,3.666 1.22685,7.06573 2.2889,4.72823 2.69705,8.39428 1.19832,10.76352 -0.67319,1.06419 -4.89957,1.78835 -15.73469,2.69602 -21.0431,1.7628 -23.68028,1.70702 -25.71743,-0.54401 z"
       id="path3202"
       inkscape:connector-curvature="0" /><path
       style="fill:#b0b0af"
       d="m 932.01078,361.51299 c -2.59081,-3.12174 -0.0482,-7.42764 6.98922,-11.83646 3.43741,-2.15346 8,-9.4422 8,-12.78001 0,-3.5803 -9.07782,-3.47384 -20.68429,0.24258 -5.58123,1.78713 -6.4623,1.83646 -9.03536,0.50588 -1.56809,-0.8109 -3.4737,-2.63774 -4.23469,-4.05967 -1.73643,-3.24454 -0.87447,-5.02699 6.95248,-14.37703 10.06974,-12.02925 15.11075,-20.74462 21.93499,-37.9232 l 3.26339,-8.21491 5.65174,-2.11162 c 3.10846,-1.1614 7.05485,-2.97719 8.76977,-4.03509 3.5693,-2.20183 6.44897,-2.45646 8.18197,-0.72346 3.37385,3.37385 -0.59105,14.91311 -11.0331,32.11019 -4.40487,7.2544 -8.22755,13.75231 -8.49486,14.43981 -0.33356,0.85789 0.63823,1.25 3.09792,1.25 2.62724,0 3.96481,-0.60062 5.01077,-2.25 0.78476,-1.2375 6.21911,-13.57511 12.07632,-27.4169 6.22104,-14.70159 11.68999,-26.20741 13.15168,-27.6691 3.21056,-3.21056 15.39835,-5.73294 17.85389,-3.69503 2.16098,1.79343 1.99238,2.79605 -2.04967,12.19241 C 993.16775,275.02998 979,312.63099 979,314.02911 c 0,1.73986 10.31679,1.0101 14.8592,-1.05107 6.7561,-3.06565 10.1408,-2.19789 10.1408,2.59984 C 1004,325.00753 989.10704,337 977.39675,337 c -1.94053,0 -4.39865,0.46583 -5.46249,1.03518 -2.621,1.40272 -2.54682,7.06799 0.16591,12.67174 1.96162,4.05218 1.99377,4.50076 0.48735,6.79985 -1.94736,2.97205 -2.42458,3.07689 -20.13976,4.42437 -18.0657,1.37414 -18.96478,1.35574 -20.43698,-0.41815 z"
       id="path3200"
       inkscape:connector-curvature="0" /><path
       style="fill:#90908e"
       d="m 933.25,362.33772 c -0.6875,-0.27741 -1.25,-1.83734 -1.25,-3.46651 0,-3.24919 2.64346,-6.31041 7.85915,-9.10119 3.50362,-1.87469 8.79396,-11.62565 7.76386,-14.31004 -0.83904,-2.18652 -12.08275,-1.88695 -19.78392,0.52712 -8.27333,2.59342 -9.22317,2.53503 -12.95133,-0.79608 -4.04024,-3.60995 -3.60839,-4.98035 4.62085,-14.66363 10.75229,-12.65212 16.77034,-22.97068 22.96836,-39.38158 2.45638,-6.50393 3.19636,-7.52284 6.40027,-8.81294 1.99252,-0.8023 5.91761,-2.55542 8.72243,-3.8958 15.69199,-7.49899 14.66343,3.80031 -2.95955,32.51236 -8.23412,13.41535 -8.47311,15.10299 -1.90911,13.48158 L 956.5,313.5 l 12,-28 12,-28 4.37585,-2.2076 c 6.13937,-3.09729 12.85083,-3.99429 14.85916,-1.98596 1.41309,1.41306 1.20009,2.38922 -2.2635,10.37668 -2.10281,4.84928 -7.28409,18.04188 -11.51396,29.31688 -5.80151,15.46432 -7.42383,20.83585 -6.60438,21.86722 1.48462,1.86857 9.74315,0.91678 15.88495,-1.83072 11.27488,-5.04377 12.11708,4.8508 1.26433,14.85448 -5.69001,5.24487 -11.12205,7.71679 -19.00245,8.64732 -3.3,0.38966 -6.5625,1.15806 -7.25,1.70754 -1.93949,1.55012 -1.47683,7.4638 0.90816,11.60781 2.42203,4.20836 2.02796,8.43921 -0.89953,9.65777 -1.62871,0.67795 -29.24634,3.42693 -33.75863,3.36024 -1.1,-0.0162 -2.5625,-0.25653 -3.25,-0.53394 z"
       id="path3198"
       inkscape:connector-curvature="0" /><path
       style="fill:#80807e"
       d="m 932.95042,361.44025 c -2.0308,-2.44695 -0.041,-6.3616 5.04958,-9.93447 2.475,-1.73709 5.50154,-4.6368 6.72565,-6.44381 2.37395,-3.50438 3.97588,-9.69437 2.81015,-10.8586 -1.43857,-1.43672 -14.69453,-0.31361 -20.97786,1.77735 -5.977,1.98902 -6.63887,2.02879 -9.46258,0.56859 -3.44596,-1.78197 -5.54391,-4.99593 -4.45182,-6.81998 0.40481,-0.67613 3.72601,-4.82933 7.38045,-9.22933 11.18906,-13.4718 14.50245,-19.031 21.44259,-35.97639 2.98299,-7.28341 4.75367,-10.30946 6.55967,-11.21029 11.31851,-5.64567 16.00535,-7.43807 17.88743,-6.84072 4.87619,1.54765 0.93435,13.56777 -10.77652,32.86159 C 950.66172,306.70754 947,313.24872 947,313.87014 c 0,1.30563 6.84146,1.51692 8.8044,0.27191 0.71742,-0.45503 6.23422,-12.48564 12.25955,-26.73469 6.02533,-14.24905 11.77816,-27.03236 12.78406,-28.40736 3.08823,-4.22142 13.42792,-7.98255 17.57252,-6.39212 2.34807,0.90102 1.95927,3.33199 -2.00758,12.5535 -6.57224,15.27814 -18.51465,48.1312 -17.99162,49.4942 0.79491,2.07152 10.29871,1.65441 15.43787,-0.67754 4.81418,-2.18449 8.6704,-2.54823 9.6809,-0.91316 1.3616,2.20309 -0.7221,7.86035 -4.45871,12.10532 -5.28642,6.00569 -12.02359,9.44175 -21.60179,11.01725 L 969.5,337.5 l -0.30042,4.64292 c -0.21485,3.32052 0.28253,5.5991 1.74626,8 4.75797,7.80427 2.23217,9.3605 -18.40039,11.33707 -19.32049,1.85088 -18.02378,1.85351 -19.59503,-0.0397 z M 959,337 c 0,-0.55 -0.19844,-1 -0.44098,-1 -0.24254,0 -0.7191,0.45 -1.05902,1 -0.33992,0.55 -0.14148,1 0.44098,1 0.58246,0 1.05902,-0.45 1.05902,-1 z m 27,-70 c 0,-0.55 -0.19844,-1 -0.44098,-1 -0.24254,0 -0.7191,0.45 -1.05902,1 -0.33992,0.55 -0.14148,1 0.44098,1 0.58246,0 1.05902,-0.45 1.05902,-1 z"
       id="path3196"
       inkscape:connector-curvature="0" /><path
       style="fill:#70706e"
       d="m 933.03719,361.06949 c -1.67955,-3.13826 0.62846,-7.07022 5.8365,-9.94314 3.56234,-1.9651 4.92078,-3.59955 7.40646,-8.91132 2.92346,-6.2473 2.97061,-6.5585 1.19079,-7.85994 -2.64098,-1.93113 -9.85323,-1.67596 -18.22838,0.64491 -3.96948,1.1 -8.24004,2 -9.49012,2 C 917.52401,337 912,332.76123 912,331.05128 c 0,-0.47727 3.10296,-4.46449 6.89547,-8.86047 11.90266,-13.79665 16.70922,-21.72715 23.12067,-38.14761 2.03085,-5.20125 4.32052,-9.80009 5.08816,-10.21965 0.76763,-0.41956 5.10235,-2.41145 9.63271,-4.42642 7.02437,-3.12423 8.47382,-3.46705 9.84555,-2.32861 3.57026,2.96306 -0.18862,13.23461 -11.78027,32.19083 -4.29126,7.01764 -7.80229,13.43014 -7.80229,14.25 0,1.89112 8.26053,2.0944 9.77908,0.24065 0.56318,-0.6875 5.84004,-12.6997 11.72636,-26.69379 5.88632,-13.99408 11.39938,-26.5075 12.25124,-27.8076 2.71109,-4.13765 13.52534,-8.22883 17.60908,-6.66175 2.35684,0.90441 2.03814,3.24857 -1.49899,11.02483 C 992.43243,273.36045 978,311.90883 978,314.00399 c 0,3.43416 8.91435,3.25298 17.37212,-0.35307 5.32128,-2.26878 7.47698,-2.10029 8.16428,0.63811 0.8306,3.30925 -0.7446,6.65387 -5.38598,11.43653 -5.3012,5.46253 -13.01038,9.30872 -20.03773,9.99705 -3.08698,0.30237 -6.36361,0.93474 -7.28141,1.40526 -2.8178,1.44459 -3.19617,6.25882 -0.8999,11.44991 2.72711,6.16508 2.67364,9.22184 -0.18138,10.36974 -1.2375,0.49756 -6.975,1.37486 -12.75,1.94957 -5.775,0.5747 -13.27533,1.32283 -16.6674,1.66251 -5.58569,0.55935 -6.27379,0.4188 -7.29541,-1.49011 z M 960,337 c 0,-0.55 -0.675,-1 -1.5,-1 -0.825,0 -1.5,0.45 -1.5,1 0,0.55 0.675,1 1.5,1 0.825,0 1.5,-0.45 1.5,-1 z m 26.1038,-70.2962 c -1.28349,-1.28349 -2.58506,-0.2915 -1.63484,1.24598 0.36808,0.59556 1.12735,0.79971 1.68727,0.45366 0.683,-0.42211 0.66575,-0.98146 -0.0524,-1.69964 z"
       id="path3194"
       inkscape:connector-curvature="0" /><path
       style="fill:#4f4f4c"
       d="m 933.58325,362.24992 c -0.82273,-0.82274 -0.69756,-5.53282 0.18206,-6.85043 0.40408,-0.60528 2.6635,-2.30872 5.02093,-3.78542 4.6515,-2.91372 7.58455,-6.94744 9.41103,-12.94267 0.96058,-3.15302 0.91375,-3.98849 -0.26543,-4.73469 -2.65176,-1.67807 -14.27921,-1.02596 -20.76587,1.16462 -3.42231,1.15573 -7.23114,1.84814 -8.46407,1.5387 C 916.39644,336.0614 912,332.48927 912,331.19472 c 0,-0.40006 2.26252,-3.19503 5.02781,-6.21105 11.07138,-12.07518 19.36599,-25.18404 24.60186,-38.88092 3.68472,-9.6391 5.73956,-13.10207 7.77532,-13.10354 0.60225,-4.3e-4 3.94791,-1.35043 7.4348,-3 7.1377,-3.37669 9.67047,-3.71782 10.55177,-1.4212 1.23314,3.2135 -4.59961,16.98599 -13.02435,30.75352 -5.03994,8.23617 -8.26034,14.50457 -7.91462,15.40553 0.85043,2.21617 9.46149,1.1298 10.94834,-1.38125 0.60438,-1.02069 5.9817,-13.33081 11.9496,-27.35581 5.9679,-14.025 11.59295,-26.33689 12.5001,-27.35976 3.00626,-3.38975 13.43982,-7.23349 16.47414,-6.06911 2.03653,0.7815 1.47999,3.69873 -2.27584,11.92887 -1.75695,3.85 -6.79174,16.5927 -11.18843,28.31711 -6.3791,17.01077 -7.75376,21.60658 -6.8048,22.75 1.70429,2.05355 8.96837,1.78838 14.88395,-0.54332 7.48725,-2.95121 9.87095,-3.1958 10.54195,-1.0817 0.8075,2.54421 -0.73,5.91065 -4.90504,10.73957 -4.79865,5.55021 -13.79281,9.96813 -22.10594,10.85839 -4.80207,0.51426 -6.78505,1.17895 -7.49944,2.51379 -1.58241,2.95677 -1.11842,7.5896 1.24793,12.46026 3.39044,6.97854 1.09466,9.17293 -9.81989,9.38622 -2.80542,0.0548 -6.40542,0.51322 -8,1.01866 -3.52954,1.11878 -18.00427,2.14264 -18.81597,1.33094 z M 960,337 c 0,-1.1 -0.64844,-2 -1.44098,-2 -1.76659,0 -2.89606,1.64564 -2.05902,3 1.08749,1.75959 3.5,1.07031 3.5,-1 z m 27,-69.33333 c 0,-0.73334 -0.2961,-1.62943 -0.65799,-1.99133 -0.90433,-0.90433 -3.45253,1.33682 -2.77198,2.43797 0.85211,1.37874 3.42997,1.04306 3.42997,-0.44664 z"
       id="path3192"
       inkscape:connector-curvature="0" /><path
       style="fill:#40403e"
       d="m 934.37917,362.2395 c -1.61448,-1.0652 -0.77541,-6.56048 1.18174,-7.7395 6.00776,-3.61919 9.37158,-6.82983 11.14612,-10.63855 4.85288,-10.41582 4.23812,-11.41152 -6.92601,-11.21764 -4.76475,0.0827 -10.13903,0.82582 -12.65675,1.75 -5.67468,2.083 -9.08925,1.98598 -11.87427,-0.33737 C 913.09512,332.25876 912.148,329 913.78041,329 c 1.11782,0 12.12359,-13.37023 17.12896,-20.80891 4.22326,-6.27635 8.36263,-14.64381 13.5307,-27.35135 2.17962,-5.35936 3.2313,-6.78973 5.38431,-7.32313 1.47159,-0.36457 5.32477,-2.00444 8.56262,-3.64416 7.38977,-3.74232 9.09403,-3.28208 8.21447,2.21837 -0.93351,5.83784 -5.20055,14.71783 -14.02562,29.18823 -4.24942,6.96775 -7.44083,13.1304 -7.09202,13.69479 1.10079,1.78112 10.02285,1.23214 11.76392,-0.72384 0.85675,-0.9625 5.92946,-12.1 11.27268,-24.75 13.44885,-31.83992 13.62682,-32.16423 18.4427,-33.6071 2.18426,-0.65442 3.73455,-1.57304 3.44511,-2.04138 -0.28945,-0.46833 0.85028,-0.91902 2.53274,-1.00152 1.68246,-0.0825 3.62152,-0.195 4.30902,-0.25 2.20618,-0.17649 1.93796,4.09488 -0.56939,9.06736 -4.11811,8.16688 -19.78222,50.63077 -19.47243,52.78786 0.55213,3.84448 8.98757,3.72787 19.79182,-0.27361 4.954,-1.83476 5.5572,-1.87725 6.0767,-0.42802 0.7566,2.1111 -0.076,6.36514 -1.1191,5.72024 -0.4475,-0.27658 -1.0902,0.36866 -1.4283,1.43386 -0.82902,2.612 -7.50889,8.53109 -12.50269,11.07873 -2.23493,1.14018 -7.25995,2.47441 -11.1667,2.96496 -3.90676,0.49055 -7.57346,1.36217 -8.14822,1.93693 -1.60431,1.60431 -1.23106,9.23345 0.62681,12.81203 2.38833,4.60033 2.16209,7.93255 -0.5885,8.66799 -1.2375,0.33088 -6.39861,0.89881 -11.46914,1.26207 -5.07052,0.36325 -8.98146,1.04502 -8.69098,1.51503 0.29048,0.47001 -1.9366,0.85457 -4.94908,0.85457 -3.01247,0 -6.07653,0.22027 -6.80901,0.4895 -0.73249,0.26922 -1.83616,0.15672 -2.45262,-0.25 z m 25.03904,-22.84649 C 962.08107,338.37117 961.37644,335 958.5,335 c -1.75758,0 -2.5,0.54444 -2.5,1.83333 0,2.83383 0.9161,3.51983 3.41821,2.55968 z m 28.39421,-71.65752 c 0.39799,-2.06658 -2.48881,-3.4591 -4.01242,-1.93549 -1.52361,1.52361 -0.13109,4.41041 1.93549,4.01242 0.95785,-0.18446 1.89247,-1.11908 2.07693,-2.07693 z"
       id="path3190"
       inkscape:connector-curvature="0" /><path
       style="fill:#383835"
       d="m 934.12472,362.21511 c -1.04478,-0.35687 -0.21313,-5.26505 1.19258,-7.0382 0.5769,-0.7277 2.79739,-2.2151 4.93444,-3.30534 3.05385,-1.55796 4.5128,-3.30818 6.81611,-8.17691 3.22009,-6.80664 3.53177,-8.69504 1.73215,-10.49466 -1.89428,-1.89428 -13.83768,-1.4458 -20.96091,0.7871 -7.92552,2.48439 -9.099,2.48817 -11.31775,0.0365 -0.98375,-1.08703 -2.17849,-1.73547 -2.65499,-1.44098 C 913.38986,332.87709 913,332.11648 913,330.89235 c 0,-1.22413 0.27093,-1.95476 0.60206,-1.62363 0.73512,0.73513 12.25625,-12.69269 17.3861,-20.26342 4.97198,-7.33776 7.6413,-12.64142 12.06715,-23.97623 2.03394,-5.20901 4.31606,-9.789 5.07138,-10.17777 4.7573,-2.44858 15.31318,-6.8513 16.42657,-6.8513 0.73079,0 1.59682,0.43382 1.92452,0.96405 1.38102,2.23453 -4.96547,16.9274 -13.04962,30.21145 -4.69476,7.71453 -8.38428,14.76849 -8.19895,15.67546 0.26704,1.30674 1.44273,1.61877 5.66398,1.50323 2.9874,-0.0818 5.9027,-0.74057 6.63781,-1.5 0.72094,-0.74481 6.1345,-12.82919 12.03013,-26.85419 5.89563,-14.025 11.59559,-26.74976 12.66658,-28.27724 1.25774,-1.79382 3.52664,-3.19965 6.40751,-3.97017 3.39035,-0.90678 4.02902,-1.36313 2.66251,-1.90248 -1.12526,-0.44412 -0.0539,-0.73583 2.86421,-0.77982 4.27295,-0.0644 4.63715,0.11745 4.3648,2.17971 -0.16344,1.2375 -1.53002,4.95 -3.03685,8.25 C 993.03517,268.8759 976,313.39536 976,314.43458 c 0,0.23241 0.70714,1.12971 1.57143,1.99399 2.18579,2.18579 8.37844,1.97353 15.20355,-0.52113 9.38982,-3.43208 10.22762,-3.35571 10.20972,0.93062 -0.011,2.73247 -0.2614,3.28121 -0.9847,2.16194 -0.8284,-1.2819 -0.9716,-1.24555 -0.9847,0.25 -0.024,2.701 -7.63112,9.68476 -13.45324,12.35022 -2.87863,1.31788 -8.02862,2.68825 -11.44444,3.04527 -4.67981,0.48914 -6.56884,1.16063 -7.6641,2.72433 -2.06346,2.94601 -1.80092,7.86163 0.69419,12.99731 3.62921,7.47002 2.73972,7.98229 -16.14771,9.2998 -6.98307,0.4871 -9.49516,0.94446 -7.5,1.36545 2.25892,0.47666 1.32747,0.73611 -3.77062,1.05033 -3.72383,0.22951 -7.14593,0.28909 -7.60466,0.1324 z m 26.69542,-24.96958 c 0.40701,-2.8663 -2.41029,-4.08396 -4.53443,-1.95982 -2.12414,2.12414 -0.90648,4.94144 1.95982,4.53443 1.45196,-0.20618 2.36843,-1.12265 2.57461,-2.57461 z M 988,267.60699 c 0,-2.84935 -2.15693,-3.94394 -4.45723,-2.26193 C 981.26728,267.00895 982.59365,270 985.60699,270 987.46434,270 988,269.46434 988,267.60699 z"
       id="path3188"
       inkscape:connector-curvature="0" /><path
       style="fill:#2f2f2c"
       d="m 933.64384,361.37311 c 0.62912,-0.25795 0.92279,-1.31431 0.65262,-2.34746 -0.51678,-1.97617 0.77967,-3.37675 6.70354,-7.24196 4.65549,-3.03763 10.68593,-14.63349 9.12599,-17.54827 -2.05118,-3.83267 -11.41913,-3.87794 -24.02903,-0.11612 -5.81989,1.7362 -6.61679,1.77012 -8.75,0.37238 -3.39844,-2.22674 -2.9382,-4.15428 2.48659,-10.4141 11.79527,-13.61092 15.83597,-20.16695 23.09584,-37.47296 C 945.44322,280.61216 948.175,275.35717 949,274.92685 952.74325,272.97439 964.31398,268 965.11227,268 c 1.65631,0 0.89757,5.1343 -1.72894,11.69953 -1.43917,3.59735 -6.43554,12.79122 -11.10305,20.43082 -4.91227,8.0402 -8.24562,14.51759 -7.91472,15.37991 0.72278,1.88351 10.50501,2.06568 12.87381,0.23974 1.48702,-1.14624 4.82799,-8.59714 18.27222,-40.75 2.6447,-6.325 5.70342,-12.78841 6.79714,-14.36314 2.16589,-3.11842 7.02328,-5.56866 11.40915,-5.75517 L 996.5,254.76337 993.5,254 c -2.70388,-0.68802 -2.55581,-0.76726 1.5,-0.80274 2.475,-0.0216 3.96278,0.17918 3.30618,0.44629 -0.65661,0.26712 -0.98097,1.04037 -0.7208,1.71834 0.26016,0.67798 -0.87947,4.21553 -2.53251,7.86123 C 990.39938,273.48617 976,312.40592 976,314.72067 c 0,1.13594 0.7118,2.3385 1.58179,2.67234 3.44428,1.32169 12.29474,0.54915 16.86396,-1.47204 2.58499,-1.14346 5.31312,-1.84374 6.06255,-1.55617 0.7493,0.28756 1.581,-0.0144 1.8481,-0.67098 0.2672,-0.6566 0.4896,0.60618 0.4944,2.80618 0.01,3.11077 -0.1824,3.55538 -0.8508,2 -0.623,-1.44982 -0.8788,-1.56811 -0.9297,-0.43 -0.1211,2.70536 -6.63134,9.37323 -12.00966,12.30048 -3.22842,1.75713 -7.85023,3.16971 -12.3588,3.77728 -4.56705,0.61545 -7.65915,1.56757 -8.45184,2.6025 -1.9205,2.50741 -1.49487,9.84943 0.83585,14.41802 3.14658,6.16781 2.11353,6.68693 -16.161,8.12115 -12.89462,1.01199 -14.52265,1.30686 -9.92485,1.79757 5.07926,0.5421 4.88801,0.59344 -2.5,0.67106 -4.4,0.0462 -7.48527,-0.127 -6.85616,-0.38495 z m 28.16684,-24.69077 C 961.57022,334.99323 960.82198,334.5 958.5,334.5 c -2.50589,0 -3.05077,0.43901 -3.30826,2.66545 -0.22093,1.91026 0.20407,2.78154 1.5,3.07516 2.90121,0.65733 5.46535,-1.12505 5.11894,-3.55827 z m 26.14945,-67.1343 C 990.04249,267.03895 988.80515,264.5 985.5,264.5 c -3.05239,0 -4.28759,2.0052 -3.11596,5.05841 0.7149,1.86301 4.02644,1.85685 5.57609,-0.0104 z M 913.15789,331 c 0,-1.375 0.22698,-1.9375 0.50439,-1.25 0.27741,0.6875 0.27741,1.8125 0,2.5 -0.27741,0.6875 -0.50439,0.125 -0.50439,-1.25 z"
       id="path3186"
       inkscape:connector-curvature="0" /></g></svg>